<svg xmlns="http://www.w3.org/2000/svg" xmlns:v="https://svgstorm.com"
viewBox="0 450 1080 380"
<g fill="None" fill-opacity="0.0" stroke="#FBFBF6" stroke-opacity="1.00" stroke-width="0.3"><path d="
M 0.00 1350.00 
L 1080.00 1350.00
L 1080.00 0.00
L 0.00 0.00
L 0.00 1350.00
M 867.00 506.00 
C 866.86 506.01 866.35 505.04 866.00 505.00
C 848.56 511.20 830.73 517.45 818.25 533.25 C 805.77 549.05 798.99 571.22 801.00 592.00
C 803.77 594.69 801.56 608.34 801.00 607.00
C 795.54 603.52 797.64 589.46 793.08 583.92 C 788.51 578.39 787.02 570.57 780.25 565.75 C 773.47 560.94 768.49 557.04 759.98 555.02 C 751.46 553.01 740.53 550.88 731.00 552.00
C 740.14 552.71 752.10 555.34 760.23 559.77 C 768.36 564.20 774.86 569.58 780.25 576.75 C 785.64 583.92 794.00 593.99 783.78 597.78 C 773.55 601.57 763.30 604.66 752.98 602.02 C 742.65 599.39 738.33 592.53 731.75 585.25 C 725.16 577.98 723.89 570.50 716.25 563.75 C 708.60 557.01 701.57 550.34 713.70 546.69 C 725.82 543.05 733.29 541.17 745.00 541.00 C 756.71 540.83 765.72 543.25 775.08 547.92 C 784.43 552.60 788.36 559.39 794.00 567.00
C 792.69 558.40 794.53 547.57 796.98 539.98 C 799.42 532.38 803.20 526.99 807.75 520.75 C 812.31 514.52 816.81 510.71 823.25 506.25 C 829.68 501.79 835.26 499.04 843.07 496.07 C 850.88 493.10 858.25 491.14 867.22 489.22 C 876.19 487.31 885.75 489.03 896.00 488.00 C 906.25 486.97 911.01 492.92 904.25 500.25 C 897.49 507.58 898.79 513.41 895.07 521.07 C 891.36 528.74 890.87 537.24 887.68 544.68 C 884.49 552.12 883.12 559.09 878.70 565.70 C 874.27 572.30 870.88 576.81 863.77 580.77 C 856.66 584.73 849.86 587.28 840.99 587.99 C 832.13 588.70 820.00 587.29 811.00 587.00
C 811.83 552.43 833.87 518.06 867.00 506.00
M 1034.00 599.00 
C 1036.01 625.83 1034.57 653.07 1034.00 680.00
C 1031.59 653.90 1029.15 624.75 1034.00 599.00
M 50.00 617.00 
C 50.00 626.00 50.00 635.00 50.00 644.00
C 50.30 647.08 51.00 651.25 51.00 655.00
C 51.00 684.02 51.81 714.07 49.00 742.00
C 45.09 701.52 48.13 659.32 48.00 618.00
C 48.09 613.41 48.91 609.56 49.00 605.00
C 51.19 608.09 49.43 613.16 50.00 617.00
M 821.00 661.00 
C 820.84 662.60 820.23 663.95 820.00 665.00
C 817.25 677.38 812.75 692.00 799.77 697.77 C 786.79 703.54 765.44 698.27 768.00 682.00
C 766.17 691.45 760.55 676.73 761.01 669.99 C 761.46 663.25 761.49 651.89 762.93 644.93 C 764.37 637.96 766.58 629.82 770.77 623.77 C 774.96 617.72 779.83 612.99 787.03 611.03 C 794.22 609.06 803.83 610.14 810.08 614.92 C 816.32 619.71 818.42 626.03 820.33 633.67 C 822.24 641.31 822.55 652.85 821.00 661.00
M 218.00 676.00 
C 222.37 681.51 220.68 687.78 221.00 695.00 C 221.31 702.22 208.59 700.89 202.00 700.00 C 195.41 699.11 198.50 685.55 198.00 679.00 C 197.50 672.45 198.89 663.08 199.00 656.00 C 199.11 648.92 199.30 640.19 200.00 633.00 C 200.70 625.81 200.61 617.80 203.00 611.00
C 207.18 613.44 222.37 606.83 223.92 613.08 C 225.46 619.34 223.57 629.55 223.00 636.00 C 222.43 642.45 222.43 651.46 222.00 658.00 C 221.57 664.54 221.95 673.58 218.00 676.00
M 348.00 676.00 
C 352.37 681.51 350.68 687.79 351.00 695.00 C 351.31 702.22 338.59 700.89 332.00 700.00 C 325.41 699.11 328.50 685.55 328.00 679.00 C 327.50 672.45 328.89 663.08 329.00 656.00 C 329.11 648.92 329.30 640.19 330.00 633.00 C 330.70 625.81 330.61 617.80 333.00 611.00
C 337.18 613.44 352.37 606.83 353.92 613.08 C 355.46 619.34 353.57 629.55 353.00 636.00 C 352.43 642.45 352.43 651.46 352.00 658.00 C 351.57 664.54 351.95 673.58 348.00 676.00
M 657.00 611.00 
C 660.47 613.45 656.99 622.62 657.00 627.00 C 657.01 631.38 655.95 639.81 656.00 645.00 C 656.05 650.19 653.95 657.34 655.00 663.00 C 656.05 668.66 652.30 672.44 653.74 676.74 C 655.18 681.05 653.07 684.28 653.81 688.25 C 654.55 692.23 656.06 702.11 649.00 700.00 C 641.93 697.88 635.98 703.26 631.75 698.25 C 627.53 693.23 632.51 686.45 631.99 680.99 C 631.48 675.53 632.20 667.56 632.00 662.00 C 631.80 656.44 633.50 649.37 633.00 644.00 C 632.50 638.63 634.04 631.05 634.78 626.78 C 635.52 622.50 633.17 610.71 638.03 611.03 C 642.89 611.35 653.39 608.45 657.00 611.00
M 723.00 612.00 
C 723.35 612.06 723.74 612.89 724.00 613.00
C 730.25 615.61 736.67 620.11 737.93 627.07 C 739.18 634.03 741.20 646.79 733.97 648.97 C 726.75 651.16 710.14 650.31 716.33 640.33 C 722.52 630.34 712.27 626.27 707.75 633.75 C 703.23 641.23 701.45 646.66 700.22 654.22 C 698.99 661.78 698.72 674.12 703.75 679.25 C 708.78 684.37 718.07 678.31 720.25 671.25 C 722.44 664.20 731.35 663.41 734.75 671.25 C 738.16 679.08 731.25 683.30 727.25 689.25 C 723.24 695.20 715.55 697.11 708.99 698.99 C 702.43 700.88 692.19 699.35 686.77 694.23 C 681.35 689.11 678.83 683.27 677.02 675.98 C 675.22 668.69 675.73 657.48 676.93 649.93 C 678.13 642.38 681.22 635.75 685.25 629.25 C 689.29 622.76 692.36 619.36 699.08 615.08 C 705.79 610.79 715.00 610.58 723.00 612.00
M 866.00 671.00 
C 869.14 677.49 889.13 669.85 895.00 674.00
C 897.49 675.76 900.31 696.26 893.97 696.97 C 887.64 697.68 873.26 698.07 867.00 698.00 C 860.74 697.93 843.47 703.10 843.01 694.99 C 842.55 686.88 844.25 676.34 844.00 668.00 C 843.75 659.66 845.75 648.94 846.00 641.00 C 846.25 633.05 845.16 620.47 847.00 614.00 C 848.84 607.53 868.45 608.29 868.00 616.00 C 867.54 623.71 867.72 634.71 867.00 643.00 C 866.28 651.29 865.02 662.25 866.00 671.00
M 105.00 616.00 
C 105.33 614.48 105.40 613.66 107.00 613.00
C 110.63 611.51 121.59 612.44 125.00 614.00
C 126.49 614.68 127.11 615.82 128.00 617.00
C 135.30 626.66 133.78 641.85 140.00 652.00
C 144.60 640.61 149.85 629.53 154.00 618.00
C 154.52 617.03 155.34 615.81 156.00 615.00
C 159.90 610.21 167.49 611.03 172.25 615.75 C 177.01 620.48 176.09 629.03 176.00 636.00 C 175.91 642.97 175.97 651.72 176.00 659.00 C 176.03 666.28 175.84 675.81 176.00 683.00 C 176.16 690.19 177.90 700.24 170.00 700.00 C 162.09 699.76 151.43 702.28 153.00 693.00 C 154.57 683.72 153.35 679.69 155.00 671.00
C 147.84 676.64 150.47 688.62 140.30 692.30 C 130.14 695.98 128.22 678.70 126.00 672.00
C 123.54 678.88 125.87 686.22 125.00 694.00 C 124.13 701.78 115.48 698.94 108.00 700.00 C 100.52 701.06 101.13 689.61 102.00 683.00 C 102.87 676.39 102.45 668.04 103.00 661.00 C 103.55 653.96 103.78 646.62 104.33 639.33 C 104.88 632.04 105.31 623.61 105.00 616.00
M 305.00 653.00 
C 305.00 657.44 305.40 662.30 304.00 666.00
C 303.87 666.33 301.30 665.73 301.00 666.00
C 307.96 672.78 301.68 680.34 304.00 691.00 C 306.32 701.66 290.85 699.26 283.00 699.00
C 279.27 687.61 273.66 676.76 271.00 665.00
C 270.93 664.76 270.21 664.30 270.00 664.00
C 267.49 660.36 268.15 653.23 263.00 653.00
C 267.52 661.35 263.77 673.98 265.00 684.00
C 265.00 688.22 265.76 693.59 264.00 697.00
C 261.73 701.38 241.70 703.86 242.00 695.00 C 242.30 686.13 243.70 676.14 244.00 667.00 C 244.30 657.86 244.69 647.93 245.98 638.98 C 247.26 630.02 245.37 620.33 249.00 612.00
C 258.53 610.36 270.98 611.85 274.30 621.70 C 277.63 631.54 281.28 637.27 284.00 647.00
C 286.18 638.23 285.25 626.05 287.00 617.00 C 288.74 607.95 309.48 609.12 306.07 620.07 C 302.67 631.03 307.16 641.92 305.00 653.00
M 394.00 699.00 
C 390.66 701.07 377.21 701.25 374.00 699.00
C 369.12 695.57 376.27 685.69 376.93 679.93 C 377.58 674.17 381.41 666.36 382.98 659.98 C 384.55 653.59 388.32 647.10 390.31 640.31 C 392.29 633.51 396.06 629.59 397.92 621.92 C 399.79 614.26 406.68 611.71 415.00 612.00 C 423.33 612.29 426.37 616.63 428.98 624.03 C 431.58 631.42 432.31 638.08 434.00 646.00 C 435.68 653.92 436.11 659.42 438.00 668.00 C 439.89 676.59 440.20 680.99 442.00 691.00 C 443.80 701.01 437.42 699.74 427.00 700.00 C 416.58 700.26 418.76 690.68 418.00 682.00
C 412.32 683.63 407.19 683.91 401.33 685.33 C 395.47 686.75 398.80 696.38 394.00 699.00
M 501.00 674.00 
C 489.35 677.08 494.69 669.05 494.93 660.93 C 495.17 652.80 503.47 652.18 511.00 652.00 C 518.53 651.82 524.02 656.63 524.00 664.00 C 523.97 671.37 522.08 678.85 519.07 685.07 C 516.06 691.30 511.55 693.82 505.92 696.92 C 500.30 700.03 491.17 700.95 484.93 699.07 C 478.69 697.19 472.74 696.26 469.75 689.25 C 466.75 682.25 464.11 676.91 465.00 668.00 C 465.89 659.09 465.27 655.94 467.33 645.33 C 469.39 634.72 477.66 620.83 487.70 615.70 C 497.74 610.56 500.74 612.75 509.00 613.00 C 517.27 613.25 519.52 619.72 522.77 624.23 C 526.02 628.74 524.60 643.67 522.25 646.25 C 519.89 648.82 499.34 649.64 502.01 642.99 C 504.68 636.35 499.76 627.02 493.75 634.75 C 487.74 642.49 488.69 644.75 487.00 653.00 C 485.31 661.25 485.60 668.11 486.78 676.22 C 487.96 684.34 500.18 680.91 501.00 674.00
M 594.00 663.00 
C 596.78 670.74 602.85 677.70 605.77 685.23 C 608.69 692.76 593.97 697.21 589.00 700.00
C 581.85 691.16 580.78 669.16 566.00 673.00
C 563.06 684.46 573.09 697.25 558.00 699.00 C 542.91 700.75 545.43 689.33 546.98 677.98 C 548.52 666.62 547.52 656.85 549.00 646.00 C 550.48 635.15 548.55 625.17 552.00 615.00
C 567.35 614.65 592.23 605.72 603.30 619.70 C 614.37 633.67 606.61 654.14 594.00 663.00
M 939.00 699.00 
C 935.66 701.07 922.21 701.25 919.00 699.00
C 914.12 695.57 921.27 685.69 921.93 679.93 C 922.58 674.17 926.41 666.36 927.98 659.98 C 929.55 653.59 933.32 647.10 935.31 640.31 C 937.29 633.51 941.06 629.59 942.92 621.92 C 944.79 614.26 951.68 611.71 960.00 612.00 C 968.32 612.29 971.37 616.63 973.98 624.03 C 976.58 631.42 977.31 638.08 979.00 646.00 C 980.68 653.92 981.11 659.42 983.00 668.00 C 984.88 676.59 985.20 680.99 987.00 691.00 C 988.80 701.01 982.42 699.74 972.00 700.00 C 961.58 700.26 963.76 690.68 963.00 682.00
C 957.32 683.63 952.19 683.91 946.33 685.33 C 940.47 686.75 943.80 696.38 939.00 699.00
M 1012.00 674.00 
C 1013.82 688.41 1012.96 703.53 1012.00 718.00
C 1010.34 704.41 1010.33 687.52 1012.00 674.00
M 72.00 758.00 
C 70.29 734.57 70.39 709.43 72.00 686.00
C 73.66 708.93 73.67 735.14 72.00 758.00
M 943.00 875.00 
C 939.33 875.00 935.67 875.00 932.00 875.00
C 926.67 875.00 921.33 875.00 916.00 875.00
C 920.42 872.75 926.82 874.61 932.00 874.00
C 935.66 874.00 939.34 874.07 943.00 874.00
C 966.96 873.52 987.72 863.57 1004.75 845.75 C 1021.78 827.94 1030.43 808.10 1031.00 782.00 C 1031.57 755.90 1032.61 720.07 1033.00 693.00
C 1033.21 731.74 1041.99 785.23 1026.69 820.69 C 1011.40 856.16 978.68 872.43 943.00 875.00
M 1012.00 736.00 
C 1011.81 758.74 1016.93 789.30 1007.69 809.69 C 998.45 830.09 980.79 840.31 960.00 843.00
C 979.37 838.12 996.33 829.62 1005.31 809.30 C 1014.28 788.99 1009.23 758.10 1012.00 736.00
M 411.00 770.00 
C 415.23 773.14 421.78 787.60 413.78 784.22 C 405.78 780.84 409.56 767.36 398.00 771.00
C 401.57 776.64 394.80 790.14 392.08 781.92 C 389.35 773.71 393.54 766.83 392.00 759.00 C 390.46 751.17 396.54 747.72 403.00 747.00 C 409.47 746.28 416.19 748.55 417.97 755.03 C 419.76 761.50 417.40 767.33 411.00 770.00
M 594.00 769.00 
C 594.33 775.08 602.75 778.07 601.00 785.00
C 590.75 785.68 592.22 767.59 581.00 771.00
C 585.53 783.80 573.82 787.79 575.00 777.00 C 576.18 766.21 572.35 758.59 576.77 750.77 C 581.19 742.95 592.65 746.45 597.75 750.25 C 602.85 754.05 602.92 768.80 594.00 769.00
M 243.00 768.00 
C 248.54 763.47 244.91 753.58 251.25 749.25 C 257.60 744.93 258.40 761.96 259.93 766.07 C 261.46 770.19 262.75 789.72 257.08 782.91 C 251.42 776.11 257.69 766.06 253.00 759.00
C 250.95 764.57 249.31 765.90 247.23 772.23 C 245.14 778.56 240.99 778.08 239.08 771.92 C 237.16 765.77 234.92 763.46 233.00 758.00
C 229.58 766.51 234.21 773.65 229.07 782.07 C 223.93 790.50 223.93 771.26 226.00 767.00 C 228.07 762.73 227.59 745.82 234.22 748.78 C 240.85 751.75 238.13 763.67 243.00 768.00
M 294.00 782.00 
C 290.83 775.69 292.29 759.50 294.00 753.00
C 297.77 738.69 299.16 760.88 299.00 765.00 C 298.84 769.12 299.18 792.33 294.00 782.00
M 354.00 748.00 
C 366.07 750.99 352.29 755.36 346.00 754.00 C 339.71 752.64 335.78 766.06 338.78 771.22 C 341.78 776.38 345.29 782.87 354.22 778.22 C 363.16 773.57 359.22 785.68 350.99 784.99 C 342.76 784.30 337.56 783.12 334.08 775.92 C 330.59 768.73 331.44 761.47 335.25 755.25 C 339.06 749.04 346.67 746.19 354.00 748.00
M 470.00 748.00 
C 490.85 752.85 482.18 791.23 461.00 785.00 C 439.82 778.77 448.28 742.95 470.00 748.00
M 537.00 769.00 
C 519.54 771.11 537.42 758.86 541.22 764.78 C 545.02 770.70 542.91 784.98 538.00 787.00
C 537.05 778.99 529.10 787.78 522.32 783.68 C 515.54 779.58 514.04 774.56 513.00 767.00 C 511.96 759.44 517.39 753.69 522.08 750.08 C 526.77 746.46 541.43 747.82 540.97 753.03 C 540.52 758.23 523.90 750.49 521.75 757.75 C 519.61 765.01 516.52 771.42 522.75 777.25 C 528.98 783.07 540.55 777.66 537.00 769.00
M 639.00 763.00 
C 641.73 764.47 651.39 760.16 651.92 765.08 C 652.44 770.01 641.88 767.38 639.00 768.00
C 636.34 782.05 642.81 777.69 653.00 780.00 C 663.19 782.31 650.80 786.00 642.00 785.00 C 633.20 784.00 632.75 776.05 633.00 768.00 C 633.25 759.95 631.97 750.36 639.03 748.03 C 646.08 745.69 661.62 749.04 655.91 752.92 C 650.21 756.79 633.39 747.62 639.00 763.00
M 696.00 763.00 
C 698.73 764.47 708.39 760.16 708.92 765.08 C 709.44 770.01 698.88 767.38 696.00 768.00
C 693.34 782.05 699.81 777.69 710.00 780.00 C 720.19 782.31 707.80 786.00 699.00 785.00 C 690.20 784.00 689.75 776.05 690.00 768.00 C 690.25 759.95 688.97 750.36 696.03 748.03 C 703.08 745.69 718.62 749.04 712.91 752.92 C 707.21 756.79 690.39 747.62 696.00 763.00
M 769.00 773.00 
C 771.19 765.90 765.93 757.16 769.33 750.33 C 772.73 743.50 776.69 758.56 775.00 763.00 C 773.31 767.44 777.56 780.86 773.22 784.22 C 768.88 787.58 764.84 776.68 762.23 773.77 C 759.62 770.86 755.69 763.37 753.00 760.00
C 748.82 767.12 755.17 773.89 752.00 782.00 C 748.83 790.11 744.74 774.45 747.00 770.00 C 749.26 765.55 743.63 750.82 748.26 748.26 C 752.88 745.70 757.07 756.68 759.77 759.23 C 762.47 761.78 766.29 770.14 769.00 773.00
M 832.00 755.00 
C 827.63 752.79 810.77 752.89 814.93 760.07 C 819.09 767.25 828.17 761.00 831.92 769.08 C 835.66 777.16 830.03 781.72 823.92 784.92 C 817.82 788.13 804.62 780.99 808.26 777.26 C 811.90 773.52 825.67 786.23 826.97 775.97 C 828.27 765.72 817.32 769.89 811.77 765.23 C 806.22 760.57 807.76 751.95 814.23 749.23 C 820.70 746.51 831.82 746.76 832.00 755.00
M 50.00 784.00 
C 50.00 806.28 59.53 829.01 76.25 844.75 C 92.97 860.50 111.22 872.12 136.07 872.93 C 160.92 873.73 197.10 874.00 223.00 874.00
C 227.00 874.00 231.00 874.00 235.00 874.00
C 230.03 875.79 223.50 874.88 218.00 876.00
C 192.78 877.37 156.73 877.12 132.93 876.07 C 109.13 875.03 89.94 863.26 74.75 847.25 C 59.56 831.24 46.26 808.25 49.00 786.00
C 48.24 778.17 48.84 769.60 49.00 761.00
C 51.30 767.76 49.36 776.49 50.00 784.00
M 148.00 844.00 
C 140.76 844.70 132.19 844.87 125.00 844.00
C 99.50 843.49 75.86 821.00 73.00 796.00
C 79.68 814.40 88.73 832.59 110.22 838.78 C 131.71 844.97 162.63 841.84 186.00 843.00
C 174.24 845.32 160.51 843.34 148.00 844.00
M 231.00 844.00 
C 225.33 844.55 218.60 844.54 213.00 844.00
C 206.33 844.00 199.67 844.00 193.00 844.00
C 209.04 841.61 226.36 841.98 243.00 843.00
C 239.91 845.19 234.84 843.43 231.00 844.00
M 930.00 843.00 
C 903.90 845.33 875.85 843.33 849.00 844.00
C 874.91 841.01 903.42 841.54 930.00 843.00
M 322.00 875.00 
C 298.85 878.34 274.24 876.99 251.00 875.00
C 273.61 872.86 299.56 871.40 322.00 875.00
M 830.00 877.00 
C 825.92 877.00 821.34 876.32 818.00 876.00
C 799.45 876.00 781.30 875.85 763.00 875.00
C 809.05 872.22 857.30 872.59 904.00 874.00
C 880.42 877.69 854.77 876.70 830.00 877.00 Z"/>
</g>
<g fill="None" fill-opacity="0.0" stroke="#6B1E9A" stroke-opacity="1.00" stroke-width="0.3"><path d="
M 794.00 567.00 
C 797.81 574.71 799.04 583.40 800.00 592.00
C 800.00 591.98 801.00 592.00 801.00 592.00
C 798.99 571.22 805.77 549.05 818.25 533.25 C 830.73 517.45 848.56 511.20 866.00 505.00
C 870.27 503.48 875.05 501.30 880.00 501.00
C 876.52 504.02 871.05 503.58 867.00 506.00
C 833.87 518.06 811.83 552.43 811.00 587.00
C 820.00 587.29 832.13 588.70 840.99 587.99 C 849.86 587.28 856.66 584.73 863.77 580.77 C 870.88 576.81 874.27 572.30 878.70 565.70 C 883.12 559.09 884.49 552.12 887.68 544.68 C 890.87 537.24 891.36 528.74 895.07 521.07 C 898.79 513.41 897.49 507.58 904.25 500.25 C 911.01 492.92 906.25 486.97 896.00 488.00 C 885.75 489.03 876.19 487.31 867.22 489.22 C 858.25 491.14 850.88 493.10 843.07 496.07 C 835.26 499.04 829.68 501.79 823.25 506.25 C 816.81 510.71 812.31 514.52 807.75 520.75 C 803.20 526.99 799.42 532.38 796.98 539.98 C 794.53 547.57 792.69 558.40 794.00 567.00 Z"/>
</g>
<g fill="None" fill-opacity="0.0" stroke="#B18CC7" stroke-opacity="1.00" stroke-width="0.3"><path d="
M 866.00 505.00 
C 866.35 505.04 866.86 506.01 867.00 506.00
C 871.05 503.58 876.52 504.02 880.00 501.00
C 875.05 501.30 870.27 503.48 866.00 505.00 Z"/>
</g>
<g fill="None" fill-opacity="0.0" stroke="#4FB053" stroke-opacity="1.00" stroke-width="0.3"><path d="
M 801.00 607.00 
C 799.51 603.41 800.44 595.97 800.00 592.00
C 799.04 583.40 797.81 574.71 794.00 567.00
C 788.36 559.39 784.43 552.60 775.08 547.92 C 765.72 543.25 756.71 540.83 745.00 541.00 C 733.29 541.17 725.82 543.05 713.70 546.69 C 701.57 550.34 708.60 557.01 716.25 563.75 C 723.89 570.50 725.16 577.98 731.75 585.25 C 738.33 592.53 742.65 599.39 752.98 602.02 C 763.30 604.66 773.55 601.57 783.78 597.78 C 794.00 593.99 785.64 583.92 780.25 576.75 C 774.86 569.58 768.36 564.20 760.23 559.77 C 752.10 555.34 740.14 552.71 731.00 552.00
C 740.53 550.88 751.46 553.01 759.98 555.02 C 768.49 557.04 773.47 560.94 780.25 565.75 C 787.02 570.57 788.51 578.39 793.08 583.92 C 797.64 589.46 795.54 603.52 801.00 607.00 Z"/>
</g>
<g fill="None" fill-opacity="0.0" stroke="#845CA5" stroke-opacity="1.00" stroke-width="0.3"><path d="
M 801.00 607.00 
C 801.56 608.34 803.77 594.69 801.00 592.00
C 801.00 592.00 800.00 591.98 800.00 592.00
C 800.44 595.97 799.51 603.41 801.00 607.00 Z"/>
</g>
<g fill="None" fill-opacity="0.0" stroke="#5A4A67" stroke-opacity="1.00" stroke-width="0.3"><path d="
M 1034.00 599.00 
C 1029.15 624.75 1031.59 653.90 1034.00 680.00
C 1034.57 653.07 1036.01 625.83 1034.00 599.00 Z"/>
</g>
<g fill="None" fill-opacity="0.0" stroke="#A8A0AC" stroke-opacity="1.00" stroke-width="0.3"><path d="
M 48.00 618.00 
C 48.19 617.59 49.88 617.26 50.00 617.00
C 49.43 613.16 51.19 608.09 49.00 605.00
C 48.91 609.56 48.09 613.41 48.00 618.00 Z"/>
</g>
<g fill="None" fill-opacity="0.0" stroke="#6E249C" stroke-opacity="1.00" stroke-width="0.3"><path d="
M 820.00 665.00 
C 819.84 664.03 820.13 662.98 820.00 662.00
C 818.32 663.87 816.70 661.48 815.00 663.00
C 811.09 660.74 814.16 656.18 816.00 656.00
C 819.08 655.70 817.01 656.08 817.00 659.00
C 819.68 656.42 818.08 661.93 821.00 661.00
C 822.55 652.85 822.24 641.31 820.33 633.67 C 818.42 626.03 816.32 619.71 810.08 614.92 C 803.83 610.14 794.22 609.06 787.03 611.03 C 779.83 612.99 774.96 617.72 770.77 623.77 C 766.58 629.82 764.37 637.96 762.93 644.93 C 761.49 651.89 761.46 663.25 761.01 669.99 C 760.55 676.73 766.17 691.45 768.00 682.00
C 765.44 698.27 786.79 703.54 799.77 697.77 C 812.75 692.00 817.25 677.38 820.00 665.00
M 804.00 615.00 
C 799.16 622.36 795.99 611.23 804.00 615.00
M 800.00 639.00 
C 801.30 640.54 802.40 638.71 804.00 639.00
C 801.62 640.95 798.81 646.25 803.00 649.00
C 800.04 648.24 803.08 651.72 800.00 651.00
C 800.00 659.82 800.75 669.95 794.25 677.25 C 787.75 684.54 780.02 670.99 783.00 662.00 C 785.98 653.01 782.86 644.20 787.78 634.78 C 792.69 625.36 799.53 626.76 800.00 639.00
M 814.00 668.00 
C 816.58 664.09 817.96 669.74 816.00 672.00
C 815.21 670.76 813.82 670.25 813.00 669.00
C 811.94 669.66 811.26 669.88 810.00 670.00
C 811.35 673.44 808.92 675.41 806.00 676.00
C 806.66 671.92 808.58 671.81 808.00 669.00
C 808.09 667.38 806.66 666.49 808.00 665.00
C 810.23 671.14 812.29 664.52 814.00 668.00
M 806.00 666.00 
C 801.64 671.38 797.51 664.07 806.00 666.00
M 806.00 685.00 
C 804.00 687.22 800.77 684.38 801.00 682.00
C 802.83 682.27 805.30 683.02 806.00 685.00
M 781.00 683.00 
C 784.64 689.57 773.53 684.21 781.00 683.00 Z"/>
</g>
<g fill="None" fill-opacity="0.0" stroke="#70289E" stroke-opacity="1.00" stroke-width="0.3"><path d="
M 218.00 676.00 
C 221.95 673.58 221.57 664.54 222.00 658.00 C 222.43 651.46 222.43 642.45 223.00 636.00 C 223.57 629.55 225.46 619.34 223.92 613.08 C 222.37 606.83 207.18 613.44 203.00 611.00
C 200.61 617.80 200.70 625.81 200.00 633.00 C 199.30 640.19 199.11 648.92 199.00 656.00 C 198.89 663.08 197.50 672.45 198.00 679.00 C 198.50 685.55 195.41 699.11 202.00 700.00 C 208.59 700.89 221.31 702.22 221.00 695.00 C 220.68 687.78 222.37 681.51 218.00 676.00
M 214.00 614.00 
C 208.21 614.78 205.22 620.88 204.00 627.00
C 201.79 623.58 203.58 618.18 203.00 614.00
C 206.35 615.05 210.13 613.42 214.00 614.00
M 206.00 628.00 
C 203.56 635.79 204.34 646.07 203.00 655.00
C 200.87 651.04 202.05 644.27 202.98 639.98 C 203.90 635.68 199.75 628.48 206.00 628.00
M 203.00 656.00 
C 202.81 660.01 201.40 663.77 202.00 668.00
C 200.35 664.95 200.06 658.57 203.00 656.00
M 218.00 665.00 
C 217.42 667.52 215.35 668.78 218.00 671.00
C 213.36 671.31 213.34 664.70 218.00 665.00
M 216.00 672.00 
C 215.85 674.18 212.95 675.11 212.00 677.00
C 210.26 673.44 212.96 672.29 216.00 672.00 Z"/>
</g>
<g fill="None" fill-opacity="0.0" stroke="#70289E" stroke-opacity="1.00" stroke-width="0.3"><path d="
M 348.00 676.00 
C 351.95 673.58 351.57 664.54 352.00 658.00 C 352.43 651.46 352.43 642.45 353.00 636.00 C 353.57 629.55 355.46 619.34 353.92 613.08 C 352.37 606.83 337.18 613.44 333.00 611.00
C 330.61 617.80 330.70 625.81 330.00 633.00 C 329.30 640.19 329.11 648.92 329.00 656.00 C 328.89 663.08 327.50 672.45 328.00 679.00 C 328.50 685.55 325.41 699.11 332.00 700.00 C 338.59 700.89 351.31 702.22 351.00 695.00 C 350.68 687.79 352.37 681.51 348.00 676.00
M 344.00 614.00 
C 338.21 614.78 335.22 620.88 334.00 627.00
C 331.79 623.58 333.58 618.18 333.00 614.00
C 336.35 615.05 340.13 613.42 344.00 614.00
M 336.00 628.00 
C 333.56 635.79 334.34 646.07 333.00 655.00
C 330.87 651.04 332.05 644.27 332.98 639.98 C 333.90 635.68 329.75 628.48 336.00 628.00
M 333.00 656.00 
C 332.81 660.01 331.40 663.77 332.00 668.00
C 330.35 664.95 330.06 658.57 333.00 656.00
M 348.00 665.00 
C 347.42 667.52 345.35 668.78 348.00 671.00
C 343.36 671.31 343.34 664.70 348.00 665.00
M 346.00 672.00 
C 345.85 674.18 342.95 675.11 342.00 677.00
C 340.26 673.44 342.96 672.29 346.00 672.00 Z"/>
</g>
<g fill="None" fill-opacity="0.0" stroke="#70289E" stroke-opacity="1.00" stroke-width="0.3"><path d="
M 657.00 611.00 
C 653.39 608.45 642.89 611.35 638.03 611.03 C 633.17 610.71 635.52 622.50 634.78 626.78 C 634.04 631.05 632.50 638.63 633.00 644.00 C 633.50 649.37 631.80 656.44 632.00 662.00 C 632.20 667.56 631.48 675.53 631.99 680.99 C 632.51 686.45 627.53 693.23 631.75 698.25 C 635.98 703.26 641.93 697.88 649.00 700.00 C 656.06 702.11 654.55 692.23 653.81 688.25 C 653.07 684.28 655.18 681.05 653.74 676.74 C 652.30 672.44 656.05 668.66 655.00 663.00 C 653.95 657.34 656.05 650.19 656.00 645.00 C 655.95 639.81 657.01 631.38 657.00 627.00 C 656.99 622.62 660.47 613.45 657.00 611.00
M 647.00 614.00 
C 642.30 615.08 637.98 621.71 638.00 627.00
C 633.16 625.22 637.92 618.02 637.00 614.00
C 639.90 615.67 643.50 613.03 647.00 614.00
M 638.00 638.00 
C 636.94 648.06 636.51 659.23 635.00 669.00
C 632.98 657.66 637.08 645.94 636.00 634.00
C 636.15 631.54 634.89 627.02 639.00 628.00
C 636.77 631.30 639.32 634.56 638.00 638.00
M 651.00 665.00 
C 649.93 667.33 650.22 669.08 652.00 671.00
C 646.42 672.60 646.14 665.21 651.00 665.00
M 650.00 672.00 
C 649.48 674.27 646.60 674.98 645.00 677.00
C 645.10 672.71 645.55 672.06 650.00 672.00 Z"/>
</g>
<g fill="None" fill-opacity="0.0" stroke="#6D229C" stroke-opacity="1.00" stroke-width="0.3"><path d="
M 724.00 613.00 
C 723.62 615.01 720.60 615.72 719.00 616.00
C 717.64 612.25 721.93 613.91 723.00 612.00
C 715.00 610.58 705.79 610.79 699.08 615.08 C 692.36 619.36 689.29 622.76 685.25 629.25 C 681.22 635.75 678.13 642.38 676.93 649.93 C 675.73 657.48 675.22 668.69 677.02 675.98 C 678.83 683.27 681.35 689.11 686.77 694.23 C 692.19 699.35 702.43 700.88 708.99 698.99 C 715.55 697.11 723.24 695.20 727.25 689.25 C 731.25 683.30 738.16 679.08 734.75 671.25 C 731.35 663.41 722.44 664.20 720.25 671.25 C 718.07 678.31 708.78 684.37 703.75 679.25 C 698.72 674.12 698.99 661.78 700.22 654.22 C 701.45 646.66 703.23 641.23 707.75 633.75 C 712.27 626.27 722.52 630.34 716.33 640.33 C 710.14 650.31 726.75 651.16 733.97 648.97 C 741.20 646.79 739.18 634.03 737.93 627.07 C 736.67 620.11 730.25 615.61 724.00 613.00
M 728.00 629.00 
C 728.44 631.44 729.44 634.20 728.00 636.00
C 726.14 634.32 725.91 630.66 728.00 629.00 Z"/>
</g>
<g fill="None" fill-opacity="0.0" stroke="#6C209B" stroke-opacity="1.00" stroke-width="0.3"><path d="
M 895.00 674.00 
C 886.90 670.08 873.58 676.94 865.00 674.00
C 865.11 673.00 864.53 671.27 866.00 671.00
C 865.02 662.25 866.28 651.29 867.00 643.00 C 867.72 634.71 867.54 623.71 868.00 616.00 C 868.45 608.29 848.84 607.53 847.00 614.00 C 845.16 620.47 846.25 633.05 846.00 641.00 C 845.75 648.94 843.75 659.66 844.00 668.00 C 844.25 676.34 842.55 686.88 843.01 694.99 C 843.47 703.10 860.74 697.93 867.00 698.00 C 873.26 698.07 887.64 697.68 893.97 696.97 C 900.31 696.26 897.49 675.76 895.00 674.00 Z"/>
</g>
<g fill="None" fill-opacity="0.0" stroke="#6C1F9B" stroke-opacity="1.00" stroke-width="0.3"><path d="
M 156.00 615.00 
C 159.00 613.12 166.16 615.45 169.00 616.00
C 164.52 618.62 158.47 615.38 154.00 618.00
C 149.85 629.53 144.60 640.61 140.00 652.00
C 133.78 641.85 135.30 626.66 128.00 617.00
C 126.54 616.37 121.21 616.17 120.00 616.00
C 118.92 616.33 117.14 616.01 116.00 616.00
C 114.77 616.17 106.03 618.66 105.00 616.00
C 105.31 623.61 104.88 632.04 104.33 639.33 C 103.78 646.62 103.55 653.96 103.00 661.00 C 102.45 668.04 102.87 676.39 102.00 683.00 C 101.13 689.61 100.52 701.06 108.00 700.00 C 115.48 698.94 124.13 701.78 125.00 694.00 C 125.87 686.22 123.54 678.88 126.00 672.00
C 128.22 678.70 130.14 695.98 140.30 692.30 C 150.47 688.62 147.84 676.64 155.00 671.00
C 153.35 679.69 154.57 683.72 153.00 693.00 C 151.43 702.28 162.09 699.76 170.00 700.00 C 177.90 700.24 176.16 690.19 176.00 683.00 C 175.84 675.81 176.03 666.28 176.00 659.00 C 175.97 651.72 175.91 642.97 176.00 636.00 C 176.09 629.03 177.01 620.48 172.25 615.75 C 167.49 611.03 159.90 610.21 156.00 615.00
M 107.00 671.00 
C 105.37 679.66 106.18 688.97 106.00 698.00
C 104.87 690.06 101.55 677.15 107.00 671.00 Z"/>
</g>
<g fill="None" fill-opacity="0.0" stroke="#6C219B" stroke-opacity="1.00" stroke-width="0.3"><path d="
M 264.00 697.00 
C 265.04 693.92 264.73 686.76 265.00 684.00
C 263.77 673.98 267.52 661.35 263.00 653.00
C 268.15 653.23 267.49 660.36 270.00 664.00
C 272.61 663.44 274.67 663.31 277.00 662.00
C 277.05 665.22 273.37 666.15 271.00 665.00
C 273.66 676.76 279.27 687.61 283.00 699.00
C 290.85 699.26 306.32 701.66 304.00 691.00 C 301.68 680.34 307.96 672.78 301.00 666.00
C 301.30 665.73 303.87 666.33 304.00 666.00
C 303.17 661.69 304.66 656.53 305.00 653.00
C 307.16 641.92 302.67 631.03 306.07 620.07 C 309.48 609.12 288.74 607.95 287.00 617.00 C 285.25 626.05 286.18 638.23 284.00 647.00
C 281.28 637.27 277.63 631.54 274.30 621.70 C 270.98 611.85 258.53 610.36 249.00 612.00
C 245.37 620.33 247.26 630.02 245.98 638.98 C 244.69 647.93 244.30 657.86 244.00 667.00 C 243.70 676.14 242.30 686.13 242.00 695.00 C 241.70 703.86 261.73 701.38 264.00 697.00
M 265.00 638.00 
C 263.53 639.01 260.99 638.96 259.00 638.00
C 260.39 637.01 264.26 635.12 265.00 638.00 Z"/>
</g>
<g fill="None" fill-opacity="0.0" stroke="#6D229C" stroke-opacity="1.00" stroke-width="0.3"><path d="
M 374.00 699.00 
C 376.79 700.30 391.14 700.19 394.00 699.00
C 398.80 696.38 395.47 686.75 401.33 685.33 C 407.19 683.91 412.32 683.63 418.00 682.00
C 418.76 690.68 416.58 700.26 427.00 700.00 C 437.42 699.74 443.80 701.01 442.00 691.00 C 440.20 680.99 439.89 676.59 438.00 668.00 C 436.11 659.42 435.68 653.92 434.00 646.00 C 432.31 638.08 431.58 631.42 428.98 624.03 C 426.37 616.63 423.33 612.29 415.00 612.00 C 406.68 611.71 399.79 614.26 397.92 621.92 C 396.06 629.59 392.29 633.51 390.31 640.31 C 388.32 647.10 384.55 653.59 382.98 659.98 C 381.41 666.36 377.58 674.17 376.93 679.93 C 376.27 685.69 369.12 695.57 374.00 699.00
M 412.00 644.00 
C 413.10 650.63 414.67 657.15 415.00 664.00
C 412.00 664.00 409.00 664.00 406.00 664.00
C 406.96 657.15 409.05 649.94 412.00 644.00
M 408.00 647.00 
C 405.53 653.71 402.76 660.34 400.00 667.00
C 399.36 660.90 403.57 652.02 408.00 647.00
M 427.00 657.00 
C 428.15 659.22 426.97 660.95 428.00 663.00
C 424.06 663.42 425.17 658.40 427.00 657.00
M 435.00 695.00 
C 432.05 692.30 431.44 687.51 427.00 686.00
C 428.93 683.33 428.15 680.58 429.00 678.00
C 434.03 678.81 434.45 688.17 435.00 695.00 Z"/>
</g>
<g fill="None" fill-opacity="0.0" stroke="#6C219B" stroke-opacity="1.00" stroke-width="0.3"><path d="
M 501.00 674.00 
C 500.18 680.91 487.96 684.34 486.78 676.22 C 485.60 668.11 485.31 661.25 487.00 653.00 C 488.69 644.75 487.74 642.49 493.75 634.75 C 499.76 627.02 504.68 636.35 502.01 642.99 C 499.34 649.64 519.89 648.82 522.25 646.25 C 524.60 643.67 526.02 628.74 522.77 624.23 C 519.52 619.72 517.27 613.25 509.00 613.00 C 500.74 612.75 497.74 610.56 487.70 615.70 C 477.66 620.83 469.39 634.72 467.33 645.33 C 465.27 655.94 465.89 659.09 465.00 668.00 C 464.11 676.91 466.75 682.25 469.75 689.25 C 472.74 696.26 478.69 697.19 484.93 699.07 C 491.17 700.95 500.30 700.03 505.92 696.92 C 511.55 693.82 516.06 691.30 519.07 685.07 C 522.08 678.85 523.97 671.37 524.00 664.00 C 524.02 656.63 518.53 651.82 511.00 652.00 C 503.47 652.18 495.17 652.80 494.93 660.93 C 494.69 669.05 489.35 677.08 501.00 674.00
M 517.00 659.00 
C 516.37 662.84 518.28 667.99 516.00 671.00
C 514.13 667.89 516.01 662.14 517.00 659.00 Z"/>
</g>
<g fill="None" fill-opacity="0.0" stroke="#6C209B" stroke-opacity="1.00" stroke-width="0.3"><path d="
M 594.00 663.00 
C 606.61 654.14 614.37 633.67 603.30 619.70 C 592.23 605.72 567.35 614.65 552.00 615.00
C 548.55 625.17 550.48 635.15 549.00 646.00 C 547.52 656.85 548.52 666.62 546.98 677.98 C 545.43 689.33 542.91 700.75 558.00 699.00 C 573.09 697.25 563.06 684.46 566.00 673.00
C 580.78 669.16 581.85 691.16 589.00 700.00
C 593.97 697.21 608.69 692.76 605.77 685.23 C 602.85 677.70 596.78 670.74 594.00 663.00
M 568.00 652.00 
C 567.52 645.80 569.75 640.28 569.00 634.00
C 575.87 629.99 589.16 629.18 586.22 639.22 C 583.28 649.26 576.41 649.51 568.00 652.00
M 605.00 648.00 
C 602.35 644.60 605.61 638.74 603.00 635.00
C 607.21 636.53 603.98 644.08 605.00 648.00
M 588.00 660.00 
C 584.14 658.40 583.16 652.96 581.00 649.00
C 587.79 651.16 586.78 655.34 588.00 660.00 Z"/>
</g>
<g fill="None" fill-opacity="0.0" stroke="#B490C8" stroke-opacity="1.00" stroke-width="0.3"><path d="
M 724.00 613.00 
C 723.74 612.89 723.35 612.06 723.00 612.00
C 721.93 613.91 717.64 612.25 719.00 616.00
C 720.60 615.72 723.62 615.01 724.00 613.00 Z"/>
</g>
<g fill="None" fill-opacity="0.0" stroke="#6D229C" stroke-opacity="1.00" stroke-width="0.3"><path d="
M 919.00 699.00 
C 921.79 700.30 936.14 700.19 939.00 699.00
C 943.80 696.38 940.47 686.75 946.33 685.33 C 952.19 683.91 957.32 683.63 963.00 682.00
C 963.76 690.68 961.58 700.26 972.00 700.00 C 982.42 699.74 988.80 701.01 987.00 691.00 C 985.20 680.99 984.88 676.59 983.00 668.00 C 981.11 659.42 980.68 653.92 979.00 646.00 C 977.31 638.08 976.58 631.42 973.98 624.03 C 971.37 616.63 968.32 612.29 960.00 612.00 C 951.68 611.71 944.79 614.26 942.92 621.92 C 941.06 629.59 937.29 633.51 935.31 640.31 C 933.32 647.10 929.55 653.59 927.98 659.98 C 926.41 666.36 922.58 674.17 921.93 679.93 C 921.27 685.69 914.12 695.57 919.00 699.00
M 957.00 644.00 
C 958.10 650.62 959.68 657.15 960.00 664.00
C 957.00 664.00 954.00 664.00 951.00 664.00
C 951.96 657.15 954.05 649.94 957.00 644.00
M 953.00 647.00 
C 950.53 653.71 947.76 660.35 945.00 667.00
C 944.36 660.90 948.57 652.02 953.00 647.00
M 972.00 657.00 
C 973.15 659.22 971.97 660.95 973.00 663.00
C 969.06 663.42 970.17 658.40 972.00 657.00
M 980.00 695.00 
C 977.05 692.30 976.44 687.51 972.00 686.00
C 973.93 683.33 973.15 680.58 974.00 678.00
C 979.03 678.81 979.45 688.17 980.00 695.00 Z"/>
</g>
<g fill="None" fill-opacity="0.0" stroke="#B490C8" stroke-opacity="1.00" stroke-width="0.3"><path d="
M 105.00 616.00 
C 106.03 618.66 114.77 616.17 116.00 616.00
C 113.58 615.99 111.79 615.47 110.00 615.00
C 109.94 614.98 103.68 613.98 107.00 613.00
C 105.40 613.66 105.33 614.48 105.00 616.00 Z"/>
</g>
<g fill="None" fill-opacity="0.0" stroke="#7632A2" stroke-opacity="1.00" stroke-width="0.3"><path d="
M 110.00 615.00 
C 113.46 615.41 117.52 615.20 121.00 615.00
C 121.84 614.95 124.97 614.00 125.00 614.00
C 121.59 612.44 110.63 611.51 107.00 613.00
C 103.68 613.98 109.94 614.98 110.00 615.00 Z"/>
</g>
<g fill="None" fill-opacity="0.0" stroke="#BB9ACC" stroke-opacity="1.00" stroke-width="0.3"><path d="
M 121.00 615.00 
C 120.74 615.10 120.35 615.89 120.00 616.00
C 121.21 616.17 126.54 616.37 128.00 617.00
C 127.11 615.82 126.49 614.68 125.00 614.00
C 124.97 614.00 121.84 614.95 121.00 615.00 Z"/>
</g>
<g fill="None" fill-opacity="0.0" stroke="#BE9FCE" stroke-opacity="1.00" stroke-width="0.3"><path d="
M 156.00 615.00 
C 155.34 615.81 154.52 617.03 154.00 618.00
C 158.47 615.38 164.52 618.62 169.00 616.00
C 166.16 615.45 159.00 613.12 156.00 615.00 Z"/>
</g>
<g fill="None" fill-opacity="0.0" stroke="#E7E0E8" stroke-opacity="1.00" stroke-width="0.3"><path d="
M 214.00 614.00 
C 210.13 613.42 206.35 615.05 203.00 614.00
C 203.58 618.18 201.79 623.58 204.00 627.00
C 205.22 620.88 208.21 614.78 214.00 614.00 Z"/>
</g>
<g fill="None" fill-opacity="0.0" stroke="#E7E0E8" stroke-opacity="1.00" stroke-width="0.3"><path d="
M 344.00 614.00 
C 340.13 613.42 336.35 615.05 333.00 614.00
C 333.58 618.18 331.79 623.58 334.00 627.00
C 335.22 620.88 338.21 614.78 344.00 614.00 Z"/>
</g>
<g fill="None" fill-opacity="0.0" stroke="#E3D9E5" stroke-opacity="1.00" stroke-width="0.3"><path d="
M 647.00 614.00 
C 643.50 613.03 639.90 615.67 637.00 614.00
C 637.92 618.02 633.16 625.22 638.00 627.00
C 637.98 621.71 642.30 615.08 647.00 614.00 Z"/>
</g>
<g fill="None" fill-opacity="0.0" stroke="#AA81C2" stroke-opacity="1.00" stroke-width="0.3"><path d="
M 804.00 615.00 
C 795.99 611.23 799.16 622.36 804.00 615.00 Z"/>
</g>
<g fill="None" fill-opacity="0.0" stroke="#F0EDED" stroke-opacity="1.00" stroke-width="0.3"><path d="
M 116.00 616.00 
C 117.14 616.01 118.92 616.33 120.00 616.00
C 120.35 615.89 120.74 615.10 121.00 615.00
C 117.52 615.20 113.46 615.41 110.00 615.00
C 111.79 615.47 113.58 615.99 116.00 616.00 Z"/>
</g>
<g fill="None" fill-opacity="0.0" stroke="#594966" stroke-opacity="1.00" stroke-width="0.3"><path d="
M 48.00 618.00 
C 48.13 659.32 45.09 701.52 49.00 742.00
C 51.81 714.07 51.00 684.02 51.00 655.00
C 50.70 651.92 50.00 647.75 50.00 644.00
C 50.00 635.00 50.00 626.00 50.00 617.00
C 49.88 617.26 48.19 617.59 48.00 618.00 Z"/>
</g>
<g fill="None" fill-opacity="0.0" stroke="#F2F0EE" stroke-opacity="1.00" stroke-width="0.3"><path d="
M 800.00 651.00 
C 800.00 647.01 800.15 642.99 800.00 639.00
C 799.53 626.76 792.69 625.36 787.78 634.78 C 782.86 644.20 785.98 653.01 783.00 662.00 C 780.02 670.99 787.75 684.54 794.25 677.25 C 800.75 669.95 800.00 659.82 800.00 651.00 Z"/>
</g>
<g fill="None" fill-opacity="0.0" stroke="#D8C8DF" stroke-opacity="1.00" stroke-width="0.3"><path d="
M 206.00 628.00 
C 199.75 628.48 203.90 635.68 202.98 639.98 C 202.05 644.27 200.87 651.04 203.00 655.00
C 204.34 646.07 203.56 635.79 206.00 628.00 Z"/>
</g>
<g fill="None" fill-opacity="0.0" stroke="#D8C8DF" stroke-opacity="1.00" stroke-width="0.3"><path d="
M 336.00 628.00 
C 329.75 628.48 333.90 635.68 332.98 639.98 C 332.05 644.27 330.87 651.04 333.00 655.00
C 334.34 646.07 333.56 635.79 336.00 628.00 Z"/>
</g>
<g fill="None" fill-opacity="0.0" stroke="#E3DAE5" stroke-opacity="1.00" stroke-width="0.3"><path d="
M 636.00 634.00 
C 636.11 634.74 637.91 637.32 638.00 638.00
C 639.32 634.56 636.77 631.30 639.00 628.00
C 634.89 627.02 636.15 631.54 636.00 634.00 Z"/>
</g>
<g fill="None" fill-opacity="0.0" stroke="#C3A6D1" stroke-opacity="1.00" stroke-width="0.3"><path d="
M 728.00 629.00 
C 725.91 630.66 726.14 634.32 728.00 636.00
C 729.44 634.20 728.44 631.44 728.00 629.00 Z"/>
</g>
<g fill="None" fill-opacity="0.0" stroke="#F1EEED" stroke-opacity="1.00" stroke-width="0.3"><path d="
M 568.00 652.00 
C 576.41 649.51 583.28 649.26 586.22 639.22 C 589.16 629.18 575.87 629.99 569.00 634.00
C 569.75 640.28 567.52 645.80 568.00 652.00 Z"/>
</g>
<g fill="None" fill-opacity="0.0" stroke="#C4A8D2" stroke-opacity="1.00" stroke-width="0.3"><path d="
M 638.00 638.00 
C 637.91 637.32 636.11 634.74 636.00 634.00
C 637.08 645.94 632.98 657.66 635.00 669.00
C 636.51 659.23 636.94 648.06 638.00 638.00 Z"/>
</g>
<g fill="None" fill-opacity="0.0" stroke="#9E6EBB" stroke-opacity="1.00" stroke-width="0.3"><path d="
M 605.00 648.00 
C 603.98 644.08 607.21 636.53 603.00 635.00
C 605.61 638.74 602.35 644.60 605.00 648.00 Z"/>
</g>
<g fill="None" fill-opacity="0.0" stroke="#945EB4" stroke-opacity="1.00" stroke-width="0.3"><path d="
M 265.00 638.00 
C 264.26 635.12 260.39 637.01 259.00 638.00
C 260.99 638.96 263.53 639.01 265.00 638.00 Z"/>
</g>
<g fill="None" fill-opacity="0.0" stroke="#B896CA" stroke-opacity="1.00" stroke-width="0.3"><path d="
M 800.00 651.00 
C 803.08 651.72 800.04 648.24 803.00 649.00
C 798.81 646.25 801.62 640.95 804.00 639.00
C 802.40 638.71 801.30 640.54 800.00 639.00
C 800.15 642.99 800.00 647.01 800.00 651.00 Z"/>
</g>
<g fill="None" fill-opacity="0.0" stroke="#9C93A1" stroke-opacity="1.00" stroke-width="0.3"><path d="
M 51.00 655.00 
C 51.00 651.25 50.30 647.08 50.00 644.00
C 50.00 647.75 50.70 651.92 51.00 655.00 Z"/>
</g>
<g fill="None" fill-opacity="0.0" stroke="#EAE4E9" stroke-opacity="1.00" stroke-width="0.3"><path d="
M 412.00 644.00 
C 409.05 649.94 406.96 657.15 406.00 664.00
C 409.00 664.00 412.00 664.00 415.00 664.00
C 414.67 657.15 413.10 650.63 412.00 644.00 Z"/>
</g>
<g fill="None" fill-opacity="0.0" stroke="#EAE4E9" stroke-opacity="1.00" stroke-width="0.3"><path d="
M 957.00 644.00 
C 954.05 649.94 951.96 657.15 951.00 664.00
C 954.00 664.00 957.00 664.00 960.00 664.00
C 959.68 657.15 958.10 650.62 957.00 644.00 Z"/>
</g>
<g fill="None" fill-opacity="0.0" stroke="#D4C2DC" stroke-opacity="1.00" stroke-width="0.3"><path d="
M 408.00 647.00 
C 403.57 652.02 399.36 660.90 400.00 667.00
C 402.76 660.34 405.53 653.71 408.00 647.00 Z"/>
</g>
<g fill="None" fill-opacity="0.0" stroke="#D4C2DC" stroke-opacity="1.00" stroke-width="0.3"><path d="
M 953.00 647.00 
C 948.57 652.02 944.36 660.90 945.00 667.00
C 947.76 660.35 950.53 653.71 953.00 647.00 Z"/>
</g>
<g fill="None" fill-opacity="0.0" stroke="#9663B6" stroke-opacity="1.00" stroke-width="0.3"><path d="
M 588.00 660.00 
C 586.78 655.34 587.79 651.16 581.00 649.00
C 583.16 652.96 584.14 658.40 588.00 660.00 Z"/>
</g>
<g fill="None" fill-opacity="0.0" stroke="#B794C9" stroke-opacity="1.00" stroke-width="0.3"><path d="
M 304.00 666.00 
C 305.40 662.30 305.00 657.44 305.00 653.00
C 304.66 656.53 303.17 661.69 304.00 666.00 Z"/>
</g>
<g fill="None" fill-opacity="0.0" stroke="#D1BDDA" stroke-opacity="1.00" stroke-width="0.3"><path d="
M 815.00 663.00 
C 815.56 661.53 817.77 658.22 816.00 656.00
C 814.16 656.18 811.09 660.74 815.00 663.00 Z"/>
</g>
<g fill="None" fill-opacity="0.0" stroke="#A477BE" stroke-opacity="1.00" stroke-width="0.3"><path d="
M 816.00 656.00 
C 817.77 658.22 815.56 661.53 815.00 663.00
C 816.70 661.48 818.32 663.87 820.00 662.00
C 820.13 662.98 819.84 664.03 820.00 665.00
C 820.23 663.95 820.84 662.60 821.00 661.00
C 818.08 661.93 819.68 656.42 817.00 659.00
C 817.01 656.08 819.08 655.70 816.00 656.00 Z"/>
</g>
<g fill="None" fill-opacity="0.0" stroke="#D2BEDA" stroke-opacity="1.00" stroke-width="0.3"><path d="
M 203.00 656.00 
C 200.06 658.57 200.35 664.95 202.00 668.00
C 201.40 663.77 202.81 660.01 203.00 656.00 Z"/>
</g>
<g fill="None" fill-opacity="0.0" stroke="#D2BEDA" stroke-opacity="1.00" stroke-width="0.3"><path d="
M 333.00 656.00 
C 330.06 658.57 330.35 664.95 332.00 668.00
C 331.40 663.77 332.81 660.01 333.00 656.00 Z"/>
</g>
<g fill="None" fill-opacity="0.0" stroke="#C8AFD4" stroke-opacity="1.00" stroke-width="0.3"><path d="
M 427.00 657.00 
C 425.17 658.40 424.06 663.42 428.00 663.00
C 426.97 660.95 428.15 659.22 427.00 657.00 Z"/>
</g>
<g fill="None" fill-opacity="0.0" stroke="#C8AFD4" stroke-opacity="1.00" stroke-width="0.3"><path d="
M 972.00 657.00 
C 970.17 658.40 969.06 663.42 973.00 663.00
C 971.97 660.95 973.15 659.22 972.00 657.00 Z"/>
</g>
<g fill="None" fill-opacity="0.0" stroke="#BE9FCE" stroke-opacity="1.00" stroke-width="0.3"><path d="
M 517.00 659.00 
C 516.01 662.14 514.13 667.89 516.00 671.00
C 518.28 667.99 516.37 662.84 517.00 659.00 Z"/>
</g>
<g fill="None" fill-opacity="0.0" stroke="#925AB3" stroke-opacity="1.00" stroke-width="0.3"><path d="
M 270.00 664.00 
C 270.21 664.30 270.93 664.76 271.00 665.00
C 273.37 666.15 277.05 665.22 277.00 662.00
C 274.67 663.31 272.61 663.44 270.00 664.00 Z"/>
</g>
<g fill="None" fill-opacity="0.0" stroke="#AE86C4" stroke-opacity="1.00" stroke-width="0.3"><path d="
M 218.00 665.00 
C 213.34 664.70 213.36 671.31 218.00 671.00
C 215.35 668.78 217.42 667.52 218.00 665.00 Z"/>
</g>
<g fill="None" fill-opacity="0.0" stroke="#AE86C4" stroke-opacity="1.00" stroke-width="0.3"><path d="
M 348.00 665.00 
C 343.34 664.70 343.36 671.31 348.00 671.00
C 345.35 668.78 347.42 667.52 348.00 665.00 Z"/>
</g>
<g fill="None" fill-opacity="0.0" stroke="#A97EC1" stroke-opacity="1.00" stroke-width="0.3"><path d="
M 651.00 665.00 
C 646.14 665.21 646.42 672.60 652.00 671.00
C 650.22 669.08 649.93 667.33 651.00 665.00 Z"/>
</g>
<g fill="None" fill-opacity="0.0" stroke="#9F70BB" stroke-opacity="1.00" stroke-width="0.3"><path d="
M 808.00 669.00 
C 808.15 669.21 809.96 670.00 810.00 670.00
C 811.26 669.88 811.94 669.66 813.00 669.00
C 813.31 668.80 813.80 668.31 814.00 668.00
C 812.29 664.52 810.23 671.14 808.00 665.00
C 806.66 666.49 808.09 667.38 808.00 669.00 Z"/>
</g>
<g fill="None" fill-opacity="0.0" stroke="#B18BC6" stroke-opacity="1.00" stroke-width="0.3"><path d="
M 806.00 666.00 
C 797.51 664.07 801.64 671.38 806.00 666.00 Z"/>
</g>
<g fill="None" fill-opacity="0.0" stroke="#C1A4D0" stroke-opacity="1.00" stroke-width="0.3"><path d="
M 814.00 668.00 
C 813.80 668.31 813.31 668.80 813.00 669.00
C 813.82 670.25 815.21 670.76 816.00 672.00
C 817.96 669.74 816.58 664.09 814.00 668.00 Z"/>
</g>
<g fill="None" fill-opacity="0.0" stroke="#C9B0D5" stroke-opacity="1.00" stroke-width="0.3"><path d="
M 810.00 670.00 
C 809.96 670.00 808.15 669.21 808.00 669.00
C 808.58 671.81 806.66 671.92 806.00 676.00
C 808.92 675.41 811.35 673.44 810.00 670.00 Z"/>
</g>
<g fill="None" fill-opacity="0.0" stroke="#D2BFDB" stroke-opacity="1.00" stroke-width="0.3"><path d="
M 107.00 671.00 
C 101.55 677.15 104.87 690.06 106.00 698.00
C 106.18 688.97 105.37 679.66 107.00 671.00 Z"/>
</g>
<g fill="None" fill-opacity="0.0" stroke="#B694C9" stroke-opacity="1.00" stroke-width="0.3"><path d="
M 895.00 674.00 
C 889.13 669.85 869.14 677.49 866.00 671.00
C 864.53 671.27 865.11 673.00 865.00 674.00
C 873.58 676.94 886.90 670.08 895.00 674.00 Z"/>
</g>
<g fill="None" fill-opacity="0.0" stroke="#AD86C4" stroke-opacity="1.00" stroke-width="0.3"><path d="
M 216.00 672.00 
C 212.96 672.29 210.26 673.44 212.00 677.00
C 212.95 675.11 215.85 674.18 216.00 672.00 Z"/>
</g>
<g fill="None" fill-opacity="0.0" stroke="#AD86C4" stroke-opacity="1.00" stroke-width="0.3"><path d="
M 346.00 672.00 
C 342.96 672.29 340.26 673.44 342.00 677.00
C 342.95 675.11 345.85 674.18 346.00 672.00 Z"/>
</g>
<g fill="None" fill-opacity="0.0" stroke="#A77CC1" stroke-opacity="1.00" stroke-width="0.3"><path d="
M 650.00 672.00 
C 645.55 672.06 645.10 672.71 645.00 677.00
C 646.60 674.98 649.48 674.27 650.00 672.00 Z"/>
</g>
<g fill="None" fill-opacity="0.0" stroke="#584764" stroke-opacity="1.00" stroke-width="0.3"><path d="
M 1012.00 674.00 
C 1010.33 687.52 1010.34 704.41 1012.00 718.00
C 1012.96 703.53 1013.82 688.41 1012.00 674.00 Z"/>
</g>
<g fill="None" fill-opacity="0.0" stroke="#E8E1E8" stroke-opacity="1.00" stroke-width="0.3"><path d="
M 435.00 695.00 
C 434.45 688.17 434.03 678.81 429.00 678.00
C 428.15 680.58 428.93 683.33 427.00 686.00
C 431.44 687.51 432.05 692.30 435.00 695.00 Z"/>
</g>
<g fill="None" fill-opacity="0.0" stroke="#E8E1E8" stroke-opacity="1.00" stroke-width="0.3"><path d="
M 980.00 695.00 
C 979.45 688.17 979.03 678.81 974.00 678.00
C 973.15 680.58 973.93 683.33 972.00 686.00
C 976.44 687.51 977.05 692.30 980.00 695.00 Z"/>
</g>
<g fill="None" fill-opacity="0.0" stroke="#D0BCDA" stroke-opacity="1.00" stroke-width="0.3"><path d="
M 806.00 685.00 
C 805.30 683.02 802.83 682.27 801.00 682.00
C 800.77 684.38 804.00 687.22 806.00 685.00 Z"/>
</g>
<g fill="None" fill-opacity="0.0" stroke="#DED1E2" stroke-opacity="1.00" stroke-width="0.3"><path d="
M 781.00 683.00 
C 773.53 684.21 784.64 689.57 781.00 683.00 Z"/>
</g>
<g fill="None" fill-opacity="0.0" stroke="#BC9CCD" stroke-opacity="1.00" stroke-width="0.3"><path d="
M 264.00 697.00 
C 265.76 693.59 265.00 688.22 265.00 684.00
C 264.73 686.76 265.04 693.92 264.00 697.00 Z"/>
</g>
<g fill="None" fill-opacity="0.0" stroke="#5B4A67" stroke-opacity="1.00" stroke-width="0.3"><path d="
M 72.00 758.00 
C 73.67 735.14 73.66 708.93 72.00 686.00
C 70.39 709.43 70.29 734.57 72.00 758.00 Z"/>
</g>
<g fill="None" fill-opacity="0.0" stroke="#5B4B68" stroke-opacity="1.00" stroke-width="0.3"><path d="
M 943.00 874.00 
C 943.01 874.00 943.00 875.00 943.00 875.00
C 978.68 872.43 1011.40 856.16 1026.69 820.69 C 1041.99 785.23 1033.21 731.74 1033.00 693.00
C 1032.61 720.07 1031.57 755.90 1031.00 782.00 C 1030.43 808.10 1021.78 827.94 1004.75 845.75 C 987.72 863.57 966.96 873.52 943.00 874.00 Z"/>
</g>
<g fill="None" fill-opacity="0.0" stroke="#B896CA" stroke-opacity="1.00" stroke-width="0.3"><path d="
M 394.00 699.00 
C 391.14 700.19 376.79 700.30 374.00 699.00
C 377.21 701.25 390.66 701.07 394.00 699.00 Z"/>
</g>
<g fill="None" fill-opacity="0.0" stroke="#B896CA" stroke-opacity="1.00" stroke-width="0.3"><path d="
M 939.00 699.00 
C 936.14 700.19 921.79 700.30 919.00 699.00
C 922.21 701.25 935.66 701.07 939.00 699.00 Z"/>
</g>
<g fill="None" fill-opacity="0.0" stroke="#5A4A67" stroke-opacity="1.00" stroke-width="0.3"><path d="
M 1012.00 736.00 
C 1009.23 758.10 1014.28 788.99 1005.31 809.30 C 996.33 829.62 979.37 838.12 960.00 843.00
C 980.79 840.31 998.45 830.09 1007.69 809.69 C 1016.93 789.30 1011.81 758.74 1012.00 736.00 Z"/>
</g>
<g fill="None" fill-opacity="0.0" stroke="#58B35B" stroke-opacity="1.00" stroke-width="0.3"><path d="
M 411.00 770.00 
C 417.40 767.33 419.76 761.50 417.97 755.03 C 416.19 748.55 409.47 746.28 403.00 747.00 C 396.54 747.72 390.46 751.17 392.00 759.00 C 393.54 766.83 389.35 773.71 392.08 781.92 C 394.80 790.14 401.57 776.64 398.00 771.00
C 409.56 767.36 405.78 780.84 413.78 784.22 C 421.78 787.60 415.23 773.14 411.00 770.00
M 398.00 766.00 
C 394.36 756.98 402.33 746.89 410.74 754.26 C 419.15 761.63 404.73 769.12 398.00 766.00 Z"/>
</g>
<g fill="None" fill-opacity="0.0" stroke="#57B35A" stroke-opacity="1.00" stroke-width="0.3"><path d="
M 594.00 769.00 
C 602.92 768.80 602.85 754.05 597.75 750.25 C 592.65 746.45 581.19 742.95 576.77 750.77 C 572.35 758.59 576.18 766.21 575.00 777.00 C 573.82 787.79 585.53 783.80 581.00 771.00
C 592.22 767.59 590.75 785.68 601.00 785.00
C 602.75 778.07 594.33 775.08 594.00 769.00
M 581.00 766.00 
C 576.97 757.01 585.76 746.48 593.74 754.26 C 601.72 762.03 587.65 768.65 581.00 766.00 Z"/>
</g>
<g fill="None" fill-opacity="0.0" stroke="#59B35B" stroke-opacity="1.00" stroke-width="0.3"><path d="
M 243.00 768.00 
C 238.13 763.67 240.85 751.75 234.22 748.78 C 227.59 745.82 228.07 762.73 226.00 767.00 C 223.93 771.26 223.93 790.50 229.07 782.07 C 234.21 773.65 229.58 766.51 233.00 758.00
C 234.92 763.46 237.16 765.77 239.08 771.92 C 240.99 778.08 245.14 778.56 247.23 772.23 C 249.31 765.90 250.95 764.57 253.00 759.00
C 257.69 766.06 251.42 776.11 257.08 782.91 C 262.75 789.72 261.46 770.19 259.93 766.07 C 258.40 761.96 257.60 744.93 251.25 749.25 C 244.91 753.58 248.54 763.47 243.00 768.00 Z"/>
</g>
<g fill="None" fill-opacity="0.0" stroke="#50B054" stroke-opacity="1.00" stroke-width="0.3"><path d="
M 294.00 753.00 
C 293.01 760.23 291.79 775.11 294.00 782.00
C 299.18 792.33 298.84 769.12 299.00 765.00 C 299.16 760.88 297.77 738.69 294.00 753.00 Z"/>
</g>
<g fill="None" fill-opacity="0.0" stroke="#58B35B" stroke-opacity="1.00" stroke-width="0.3"><path d="
M 354.00 748.00 
C 346.67 746.19 339.06 749.04 335.25 755.25 C 331.44 761.47 330.59 768.73 334.08 775.92 C 337.56 783.12 342.76 784.30 350.99 784.99 C 359.22 785.68 363.16 773.57 354.22 778.22 C 345.29 782.87 341.78 776.38 338.78 771.22 C 335.78 766.06 339.71 752.64 346.00 754.00 C 352.29 755.36 366.07 750.99 354.00 748.00 Z"/>
</g>
<g fill="None" fill-opacity="0.0" stroke="#58B35B" stroke-opacity="1.00" stroke-width="0.3"><path d="
M 470.00 748.00 
C 448.28 742.95 439.82 778.77 461.00 785.00 C 482.18 791.23 490.85 752.85 470.00 748.00
M 468.00 753.00 
C 481.74 755.69 477.13 783.52 463.00 780.00 C 448.86 776.48 453.63 750.18 468.00 753.00 Z"/>
</g>
<g fill="None" fill-opacity="0.0" stroke="#56B259" stroke-opacity="1.00" stroke-width="0.3"><path d="
M 537.00 769.00 
C 540.55 777.66 528.98 783.07 522.75 777.25 C 516.52 771.42 519.61 765.01 521.75 757.75 C 523.90 750.49 540.52 758.23 540.97 753.03 C 541.43 747.82 526.77 746.46 522.08 750.08 C 517.39 753.69 511.96 759.44 513.00 767.00 C 514.04 774.56 515.54 779.58 522.32 783.68 C 529.10 787.78 537.05 778.99 538.00 787.00
C 542.91 784.98 545.02 770.70 541.22 764.78 C 537.42 758.86 519.54 771.11 537.00 769.00 Z"/>
</g>
<g fill="None" fill-opacity="0.0" stroke="#53B157" stroke-opacity="1.00" stroke-width="0.3"><path d="
M 639.00 763.00 
C 633.39 747.62 650.21 756.79 655.91 752.92 C 661.62 749.04 646.08 745.69 639.03 748.03 C 631.97 750.36 633.25 759.95 633.00 768.00 C 632.75 776.05 633.20 784.00 642.00 785.00 C 650.80 786.00 663.19 782.31 653.00 780.00 C 642.81 777.69 636.34 782.05 639.00 768.00
C 641.88 767.38 652.44 770.01 651.92 765.08 C 651.39 760.16 641.73 764.47 639.00 763.00 Z"/>
</g>
<g fill="None" fill-opacity="0.0" stroke="#53B157" stroke-opacity="1.00" stroke-width="0.3"><path d="
M 696.00 763.00 
C 690.39 747.62 707.21 756.79 712.91 752.92 C 718.62 749.04 703.08 745.69 696.03 748.03 C 688.97 750.36 690.25 759.95 690.00 768.00 C 689.75 776.05 690.20 784.00 699.00 785.00 C 707.80 786.00 720.19 782.31 710.00 780.00 C 699.81 777.69 693.34 782.05 696.00 768.00
C 698.88 767.38 709.44 770.01 708.92 765.08 C 708.39 760.16 698.73 764.47 696.00 763.00 Z"/>
</g>
<g fill="None" fill-opacity="0.0" stroke="#57B359" stroke-opacity="1.00" stroke-width="0.3"><path d="
M 769.00 773.00 
C 766.29 770.14 762.47 761.78 759.77 759.23 C 757.07 756.68 752.88 745.70 748.26 748.26 C 743.63 750.82 749.26 765.55 747.00 770.00 C 744.74 774.45 748.83 790.11 752.00 782.00 C 755.17 773.89 748.82 767.12 753.00 760.00
C 755.69 763.37 759.62 770.86 762.23 773.77 C 764.84 776.68 768.88 787.58 773.22 784.22 C 777.56 780.86 773.31 767.44 775.00 763.00 C 776.69 758.56 772.73 743.50 769.33 750.33 C 765.93 757.16 771.19 765.90 769.00 773.00 Z"/>
</g>
<g fill="None" fill-opacity="0.0" stroke="#5BB45D" stroke-opacity="1.00" stroke-width="0.3"><path d="
M 832.00 755.00 
C 831.82 746.76 820.70 746.51 814.23 749.23 C 807.76 751.95 806.22 760.57 811.77 765.23 C 817.32 769.89 828.27 765.72 826.97 775.97 C 825.67 786.23 811.90 773.52 808.26 777.26 C 804.62 780.99 817.82 788.13 823.92 784.92 C 830.03 781.72 835.66 777.16 831.92 769.08 C 828.17 761.00 819.09 767.25 814.93 760.07 C 810.77 752.89 827.63 752.79 832.00 755.00 Z"/>
</g>
<g fill="None" fill-opacity="0.0" stroke="#F2F3ED" stroke-opacity="1.00" stroke-width="0.3"><path d="
M 398.00 766.00 
C 404.73 769.12 419.15 761.63 410.74 754.26 C 402.33 746.89 394.36 756.98 398.00 766.00 Z"/>
</g>
<g fill="None" fill-opacity="0.0" stroke="#F1F3ED" stroke-opacity="1.00" stroke-width="0.3"><path d="
M 581.00 766.00 
C 587.65 768.65 601.72 762.03 593.74 754.26 C 585.76 746.48 576.97 757.01 581.00 766.00 Z"/>
</g>
<g fill="None" fill-opacity="0.0" stroke="#A9D5A9" stroke-opacity="1.00" stroke-width="0.3"><path d="
M 294.00 782.00 
C 291.79 775.11 293.01 760.23 294.00 753.00
C 292.29 759.50 290.83 775.69 294.00 782.00 Z"/>
</g>
<g fill="None" fill-opacity="0.0" stroke="#F3F4EE" stroke-opacity="1.00" stroke-width="0.3"><path d="
M 468.00 753.00 
C 453.63 750.18 448.86 776.48 463.00 780.00 C 477.13 783.52 481.74 755.69 468.00 753.00 Z"/>
</g>
<g fill="None" fill-opacity="0.0" stroke="#C7C2C7" stroke-opacity="1.00" stroke-width="0.3"><path d="
M 49.00 786.00 
C 49.14 784.87 49.83 784.65 50.00 784.00
C 49.36 776.49 51.30 767.76 49.00 761.00
C 48.84 769.60 48.24 778.17 49.00 786.00 Z"/>
</g>
<g fill="None" fill-opacity="0.0" stroke="#5A4A67" stroke-opacity="1.00" stroke-width="0.3"><path d="
M 49.00 786.00 
C 46.26 808.25 59.56 831.24 74.75 847.25 C 89.94 863.26 109.13 875.03 132.93 876.07 C 156.73 877.12 192.78 877.37 218.00 876.00
C 219.05 875.84 222.01 874.15 223.00 874.00
C 197.10 874.00 160.92 873.73 136.07 872.93 C 111.22 872.12 92.97 860.50 76.25 844.75 C 59.53 829.01 50.00 806.28 50.00 784.00
C 49.83 784.65 49.14 784.87 49.00 786.00 Z"/>
</g>
<g fill="None" fill-opacity="0.0" stroke="#5B4B68" stroke-opacity="1.00" stroke-width="0.3"><path d="
M 125.00 844.00 
C 132.66 844.15 140.34 844.00 148.00 844.00
C 160.51 843.34 174.24 845.32 186.00 843.00
C 162.63 841.84 131.71 844.97 110.22 838.78 C 88.73 832.59 79.68 814.40 73.00 796.00
C 75.86 821.00 99.50 843.49 125.00 844.00 Z"/>
</g>
<g fill="None" fill-opacity="0.0" stroke="#5A4A67" stroke-opacity="1.00" stroke-width="0.3"><path d="
M 213.00 844.00 
C 219.00 844.00 225.00 844.00 231.00 844.00
C 234.84 843.43 239.91 845.19 243.00 843.00
C 226.36 841.98 209.04 841.61 193.00 844.00
C 199.67 844.00 206.33 844.00 213.00 844.00 Z"/>
</g>
<g fill="None" fill-opacity="0.0" stroke="#594865" stroke-opacity="1.00" stroke-width="0.3"><path d="
M 930.00 843.00 
C 903.42 841.54 874.91 841.01 849.00 844.00
C 875.85 843.33 903.90 845.33 930.00 843.00 Z"/>
</g>
<g fill="None" fill-opacity="0.0" stroke="#9B91A0" stroke-opacity="1.00" stroke-width="0.3"><path d="
M 148.00 844.00 
C 140.34 844.00 132.66 844.15 125.00 844.00
C 132.19 844.87 140.76 844.70 148.00 844.00 Z"/>
</g>
<g fill="None" fill-opacity="0.0" stroke="#998F9F" stroke-opacity="1.00" stroke-width="0.3"><path d="
M 231.00 844.00 
C 225.00 844.00 219.00 844.00 213.00 844.00
C 218.60 844.54 225.33 844.55 231.00 844.00 Z"/>
</g>
<g fill="None" fill-opacity="0.0" stroke="#5B4A67" stroke-opacity="1.00" stroke-width="0.3"><path d="
M 322.00 875.00 
C 299.56 871.40 273.61 872.86 251.00 875.00
C 274.24 876.99 298.85 878.34 322.00 875.00 Z"/>
</g>
<g fill="None" fill-opacity="0.0" stroke="#5E4E6A" stroke-opacity="1.00" stroke-width="0.3"><path d="
M 818.00 876.00 
C 822.08 876.00 826.66 876.68 830.00 877.00
C 854.77 876.70 880.42 877.69 904.00 874.00
C 857.30 872.59 809.05 872.22 763.00 875.00
C 781.30 875.85 799.45 876.00 818.00 876.00 Z"/>
</g>
<g fill="None" fill-opacity="0.0" stroke="#B0A8B2" stroke-opacity="1.00" stroke-width="0.3"><path d="
M 218.00 876.00 
C 223.50 874.88 230.03 875.79 235.00 874.00
C 231.00 874.00 227.00 874.00 223.00 874.00
C 222.01 874.15 219.05 875.84 218.00 876.00 Z"/>
</g>
<g fill="None" fill-opacity="0.0" stroke="#BAB4BC" stroke-opacity="1.00" stroke-width="0.3"><path d="
M 932.00 875.00 
C 931.96 875.00 932.00 874.00 932.00 874.00
C 926.82 874.61 920.42 872.75 916.00 875.00
C 921.33 875.00 926.67 875.00 932.00 875.00 Z"/>
</g>
<g fill="None" fill-opacity="0.0" stroke="#82758A" stroke-opacity="1.00" stroke-width="0.3"><path d="
M 932.00 875.00 
C 935.67 875.00 939.33 875.00 943.00 875.00
C 943.00 875.00 943.01 874.00 943.00 874.00
C 939.34 874.07 935.66 874.00 932.00 874.00
C 932.00 874.00 931.96 875.00 932.00 875.00 Z"/>
</g>
<g fill="None" fill-opacity="0.0" stroke="#9D94A2" stroke-opacity="1.00" stroke-width="0.3"><path d="
M 830.00 877.00 
C 826.66 876.68 822.08 876.00 818.00 876.00
C 821.34 876.32 825.92 877.00 830.00 877.00 Z"/>
</g>
<g fill="#6B1E9A" fill-opacity="1.00" stroke="None">
<path d="
M 794.00 567.00 
C 797.81 574.71 799.04 583.40 800.00 592.00
C 800.00 591.98 801.00 592.00 801.00 592.00
C 798.99 571.22 805.77 549.05 818.25 533.25 C 830.73 517.45 848.56 511.20 866.00 505.00
C 870.27 503.48 875.05 501.30 880.00 501.00
C 876.52 504.02 871.05 503.58 867.00 506.00
C 833.87 518.06 811.83 552.43 811.00 587.00
C 820.00 587.29 832.13 588.70 840.99 587.99 C 849.86 587.28 856.66 584.73 863.77 580.77 C 870.88 576.81 874.27 572.30 878.70 565.70 C 883.12 559.09 884.49 552.12 887.68 544.68 C 890.87 537.24 891.36 528.74 895.07 521.07 C 898.79 513.41 897.49 507.58 904.25 500.25 C 911.01 492.92 906.25 486.97 896.00 488.00 C 885.75 489.03 876.19 487.31 867.22 489.22 C 858.25 491.14 850.88 493.10 843.07 496.07 C 835.26 499.04 829.68 501.79 823.25 506.25 C 816.81 510.71 812.31 514.52 807.75 520.75 C 803.20 526.99 799.42 532.38 796.98 539.98 C 794.53 547.57 792.69 558.40 794.00 567.00 Z"/>
</g>
<g fill="#B18CC7" fill-opacity="1.00" stroke="None">
<path d="
M 866.00 505.00 
C 866.35 505.04 866.86 506.01 867.00 506.00
C 871.05 503.58 876.52 504.02 880.00 501.00
C 875.05 501.30 870.27 503.48 866.00 505.00 Z"/>
</g>
<g fill="#4FB053" fill-opacity="1.00" stroke="None">
<path d="
M 801.00 607.00 
C 799.51 603.41 800.44 595.97 800.00 592.00
C 799.04 583.40 797.81 574.71 794.00 567.00
C 788.36 559.39 784.43 552.60 775.08 547.92 C 765.72 543.25 756.71 540.83 745.00 541.00 C 733.29 541.17 725.82 543.05 713.70 546.69 C 701.57 550.34 708.60 557.01 716.25 563.75 C 723.89 570.50 725.16 577.98 731.75 585.25 C 738.33 592.53 742.65 599.39 752.98 602.02 C 763.30 604.66 773.55 601.57 783.78 597.78 C 794.00 593.99 785.64 583.92 780.25 576.75 C 774.86 569.58 768.36 564.20 760.23 559.77 C 752.10 555.34 740.14 552.71 731.00 552.00
C 740.53 550.88 751.46 553.01 759.98 555.02 C 768.49 557.04 773.47 560.94 780.25 565.75 C 787.02 570.57 788.51 578.39 793.08 583.92 C 797.64 589.46 795.54 603.52 801.00 607.00 Z"/>
</g>
<g fill="#845CA5" fill-opacity="1.00" stroke="None">
<path d="
M 801.00 607.00 
C 801.56 608.34 803.77 594.69 801.00 592.00
C 801.00 592.00 800.00 591.98 800.00 592.00
C 800.44 595.97 799.51 603.41 801.00 607.00 Z"/>
</g>
<g fill="#5A4A67" fill-opacity="1.00" stroke="None">
<path d="
M 1034.00 599.00 
C 1029.15 624.75 1031.59 653.90 1034.00 680.00
C 1034.57 653.07 1036.01 625.83 1034.00 599.00 Z"/>
</g>
<g fill="#A8A0AC" fill-opacity="1.00" stroke="None">
<path d="
M 48.00 618.00 
C 48.19 617.59 49.88 617.26 50.00 617.00
C 49.43 613.16 51.19 608.09 49.00 605.00
C 48.91 609.56 48.09 613.41 48.00 618.00 Z"/>
</g>
<g fill="#6E249C" fill-opacity="1.00" stroke="None">
<path d="
M 820.00 665.00 
C 819.84 664.03 820.13 662.98 820.00 662.00
C 818.32 663.87 816.70 661.48 815.00 663.00
C 811.09 660.74 814.16 656.18 816.00 656.00
C 819.08 655.70 817.01 656.08 817.00 659.00
C 819.68 656.42 818.08 661.93 821.00 661.00
C 822.55 652.85 822.24 641.31 820.33 633.67 C 818.42 626.03 816.32 619.71 810.08 614.92 C 803.83 610.14 794.22 609.06 787.03 611.03 C 779.83 612.99 774.96 617.72 770.77 623.77 C 766.58 629.82 764.37 637.96 762.93 644.93 C 761.49 651.89 761.46 663.25 761.01 669.99 C 760.55 676.73 766.17 691.45 768.00 682.00
C 765.44 698.27 786.79 703.54 799.77 697.77 C 812.75 692.00 817.25 677.38 820.00 665.00
M 804.00 615.00 
C 799.16 622.36 795.99 611.23 804.00 615.00
M 800.00 639.00 
C 801.30 640.54 802.40 638.71 804.00 639.00
C 801.62 640.95 798.81 646.25 803.00 649.00
C 800.04 648.24 803.08 651.72 800.00 651.00
C 800.00 659.82 800.75 669.95 794.25 677.25 C 787.75 684.54 780.02 670.99 783.00 662.00 C 785.98 653.01 782.86 644.20 787.78 634.78 C 792.69 625.36 799.53 626.76 800.00 639.00
M 814.00 668.00 
C 816.58 664.09 817.96 669.74 816.00 672.00
C 815.21 670.76 813.82 670.25 813.00 669.00
C 811.94 669.66 811.26 669.88 810.00 670.00
C 811.35 673.44 808.92 675.41 806.00 676.00
C 806.66 671.92 808.58 671.81 808.00 669.00
C 808.09 667.38 806.66 666.49 808.00 665.00
C 810.23 671.14 812.29 664.52 814.00 668.00
M 806.00 666.00 
C 801.64 671.38 797.51 664.07 806.00 666.00
M 806.00 685.00 
C 804.00 687.22 800.77 684.38 801.00 682.00
C 802.83 682.27 805.30 683.02 806.00 685.00
M 781.00 683.00 
C 784.64 689.57 773.53 684.21 781.00 683.00 Z"/>
</g>
<g fill="#70289E" fill-opacity="1.00" stroke="None">
<path d="
M 218.00 676.00 
C 221.95 673.58 221.57 664.54 222.00 658.00 C 222.43 651.46 222.43 642.45 223.00 636.00 C 223.57 629.55 225.46 619.34 223.92 613.08 C 222.37 606.83 207.18 613.44 203.00 611.00
C 200.61 617.80 200.70 625.81 200.00 633.00 C 199.30 640.19 199.11 648.92 199.00 656.00 C 198.89 663.08 197.50 672.45 198.00 679.00 C 198.50 685.55 195.41 699.11 202.00 700.00 C 208.59 700.89 221.31 702.22 221.00 695.00 C 220.68 687.78 222.37 681.51 218.00 676.00
M 214.00 614.00 
C 208.21 614.78 205.22 620.88 204.00 627.00
C 201.79 623.58 203.58 618.18 203.00 614.00
C 206.35 615.05 210.13 613.42 214.00 614.00
M 206.00 628.00 
C 203.56 635.79 204.34 646.07 203.00 655.00
C 200.87 651.04 202.05 644.27 202.98 639.98 C 203.90 635.68 199.75 628.48 206.00 628.00
M 203.00 656.00 
C 202.81 660.01 201.40 663.77 202.00 668.00
C 200.35 664.95 200.06 658.57 203.00 656.00
M 218.00 665.00 
C 217.42 667.52 215.35 668.78 218.00 671.00
C 213.36 671.31 213.34 664.70 218.00 665.00
M 216.00 672.00 
C 215.85 674.18 212.95 675.11 212.00 677.00
C 210.26 673.44 212.96 672.29 216.00 672.00 Z"/>
</g>
<g fill="#70289E" fill-opacity="1.00" stroke="None">
<path d="
M 348.00 676.00 
C 351.95 673.58 351.57 664.54 352.00 658.00 C 352.43 651.46 352.43 642.45 353.00 636.00 C 353.57 629.55 355.46 619.34 353.92 613.08 C 352.37 606.83 337.18 613.44 333.00 611.00
C 330.61 617.80 330.70 625.81 330.00 633.00 C 329.30 640.19 329.11 648.92 329.00 656.00 C 328.89 663.08 327.50 672.45 328.00 679.00 C 328.50 685.55 325.41 699.11 332.00 700.00 C 338.59 700.89 351.31 702.22 351.00 695.00 C 350.68 687.79 352.37 681.51 348.00 676.00
M 344.00 614.00 
C 338.21 614.78 335.22 620.88 334.00 627.00
C 331.79 623.58 333.58 618.18 333.00 614.00
C 336.35 615.05 340.13 613.42 344.00 614.00
M 336.00 628.00 
C 333.56 635.79 334.34 646.07 333.00 655.00
C 330.87 651.04 332.05 644.27 332.98 639.98 C 333.90 635.68 329.75 628.48 336.00 628.00
M 333.00 656.00 
C 332.81 660.01 331.40 663.77 332.00 668.00
C 330.35 664.95 330.06 658.57 333.00 656.00
M 348.00 665.00 
C 347.42 667.52 345.35 668.78 348.00 671.00
C 343.36 671.31 343.34 664.70 348.00 665.00
M 346.00 672.00 
C 345.85 674.18 342.95 675.11 342.00 677.00
C 340.26 673.44 342.96 672.29 346.00 672.00 Z"/>
</g>
<g fill="#70289E" fill-opacity="1.00" stroke="None">
<path d="
M 657.00 611.00 
C 653.39 608.45 642.89 611.35 638.03 611.03 C 633.17 610.71 635.52 622.50 634.78 626.78 C 634.04 631.05 632.50 638.63 633.00 644.00 C 633.50 649.37 631.80 656.44 632.00 662.00 C 632.20 667.56 631.48 675.53 631.99 680.99 C 632.51 686.45 627.53 693.23 631.75 698.25 C 635.98 703.26 641.93 697.88 649.00 700.00 C 656.06 702.11 654.55 692.23 653.81 688.25 C 653.07 684.28 655.18 681.05 653.74 676.74 C 652.30 672.44 656.05 668.66 655.00 663.00 C 653.95 657.34 656.05 650.19 656.00 645.00 C 655.95 639.81 657.01 631.38 657.00 627.00 C 656.99 622.62 660.47 613.45 657.00 611.00
M 647.00 614.00 
C 642.30 615.08 637.98 621.71 638.00 627.00
C 633.16 625.22 637.92 618.02 637.00 614.00
C 639.90 615.67 643.50 613.03 647.00 614.00
M 638.00 638.00 
C 636.94 648.06 636.51 659.23 635.00 669.00
C 632.98 657.66 637.08 645.94 636.00 634.00
C 636.15 631.54 634.89 627.02 639.00 628.00
C 636.77 631.30 639.32 634.56 638.00 638.00
M 651.00 665.00 
C 649.93 667.33 650.22 669.08 652.00 671.00
C 646.42 672.60 646.14 665.21 651.00 665.00
M 650.00 672.00 
C 649.48 674.27 646.60 674.98 645.00 677.00
C 645.10 672.71 645.55 672.06 650.00 672.00 Z"/>
</g>
<g fill="#6D229C" fill-opacity="1.00" stroke="None">
<path d="
M 724.00 613.00 
C 723.62 615.01 720.60 615.72 719.00 616.00
C 717.64 612.25 721.93 613.91 723.00 612.00
C 715.00 610.58 705.79 610.79 699.08 615.08 C 692.36 619.36 689.29 622.76 685.25 629.25 C 681.22 635.75 678.13 642.38 676.93 649.93 C 675.73 657.48 675.22 668.69 677.02 675.98 C 678.83 683.27 681.35 689.11 686.77 694.23 C 692.19 699.35 702.43 700.88 708.99 698.99 C 715.55 697.11 723.24 695.20 727.25 689.25 C 731.25 683.30 738.16 679.08 734.75 671.25 C 731.35 663.41 722.44 664.20 720.25 671.25 C 718.07 678.31 708.78 684.37 703.75 679.25 C 698.72 674.12 698.99 661.78 700.22 654.22 C 701.45 646.66 703.23 641.23 707.75 633.75 C 712.27 626.27 722.52 630.34 716.33 640.33 C 710.14 650.31 726.75 651.16 733.97 648.97 C 741.20 646.79 739.18 634.03 737.93 627.07 C 736.67 620.11 730.25 615.61 724.00 613.00
M 728.00 629.00 
C 728.44 631.44 729.44 634.20 728.00 636.00
C 726.14 634.32 725.91 630.66 728.00 629.00 Z"/>
</g>
<g fill="#6C209B" fill-opacity="1.00" stroke="None">
<path d="
M 895.00 674.00 
C 886.90 670.08 873.58 676.94 865.00 674.00
C 865.11 673.00 864.53 671.27 866.00 671.00
C 865.02 662.25 866.28 651.29 867.00 643.00 C 867.72 634.71 867.54 623.71 868.00 616.00 C 868.45 608.29 848.84 607.53 847.00 614.00 C 845.16 620.47 846.25 633.05 846.00 641.00 C 845.75 648.94 843.75 659.66 844.00 668.00 C 844.25 676.34 842.55 686.88 843.01 694.99 C 843.47 703.10 860.74 697.93 867.00 698.00 C 873.26 698.07 887.64 697.68 893.97 696.97 C 900.31 696.26 897.49 675.76 895.00 674.00 Z"/>
</g>
<g fill="#6C1F9B" fill-opacity="1.00" stroke="None">
<path d="
M 156.00 615.00 
C 159.00 613.12 166.16 615.45 169.00 616.00
C 164.52 618.62 158.47 615.38 154.00 618.00
C 149.85 629.53 144.60 640.61 140.00 652.00
C 133.78 641.85 135.30 626.66 128.00 617.00
C 126.54 616.37 121.21 616.17 120.00 616.00
C 118.92 616.33 117.14 616.01 116.00 616.00
C 114.77 616.17 106.03 618.66 105.00 616.00
C 105.31 623.61 104.88 632.04 104.33 639.33 C 103.78 646.62 103.55 653.96 103.00 661.00 C 102.45 668.04 102.87 676.39 102.00 683.00 C 101.13 689.61 100.52 701.06 108.00 700.00 C 115.48 698.94 124.13 701.78 125.00 694.00 C 125.87 686.22 123.54 678.88 126.00 672.00
C 128.22 678.70 130.14 695.98 140.30 692.30 C 150.47 688.62 147.84 676.64 155.00 671.00
C 153.35 679.69 154.57 683.72 153.00 693.00 C 151.43 702.28 162.09 699.76 170.00 700.00 C 177.90 700.24 176.16 690.19 176.00 683.00 C 175.84 675.81 176.03 666.28 176.00 659.00 C 175.97 651.72 175.91 642.97 176.00 636.00 C 176.09 629.03 177.01 620.48 172.25 615.75 C 167.49 611.03 159.90 610.21 156.00 615.00
M 107.00 671.00 
C 105.37 679.66 106.18 688.97 106.00 698.00
C 104.87 690.06 101.55 677.15 107.00 671.00 Z"/>
</g>
<g fill="#6C219B" fill-opacity="1.00" stroke="None">
<path d="
M 264.00 697.00 
C 265.04 693.92 264.73 686.76 265.00 684.00
C 263.77 673.98 267.52 661.35 263.00 653.00
C 268.15 653.23 267.49 660.36 270.00 664.00
C 272.61 663.44 274.67 663.31 277.00 662.00
C 277.05 665.22 273.37 666.15 271.00 665.00
C 273.66 676.76 279.27 687.61 283.00 699.00
C 290.85 699.26 306.32 701.66 304.00 691.00 C 301.68 680.34 307.96 672.78 301.00 666.00
C 301.30 665.73 303.87 666.33 304.00 666.00
C 303.17 661.69 304.66 656.53 305.00 653.00
C 307.16 641.92 302.67 631.03 306.07 620.07 C 309.48 609.12 288.74 607.95 287.00 617.00 C 285.25 626.05 286.18 638.23 284.00 647.00
C 281.28 637.27 277.63 631.54 274.30 621.70 C 270.98 611.85 258.53 610.36 249.00 612.00
C 245.37 620.33 247.26 630.02 245.98 638.98 C 244.69 647.93 244.30 657.86 244.00 667.00 C 243.70 676.14 242.30 686.13 242.00 695.00 C 241.70 703.86 261.73 701.38 264.00 697.00
M 265.00 638.00 
C 263.53 639.01 260.99 638.96 259.00 638.00
C 260.39 637.01 264.26 635.12 265.00 638.00 Z"/>
</g>
<g fill="#6D229C" fill-opacity="1.00" stroke="None">
<path d="
M 374.00 699.00 
C 376.79 700.30 391.14 700.19 394.00 699.00
C 398.80 696.38 395.47 686.75 401.33 685.33 C 407.19 683.91 412.32 683.63 418.00 682.00
C 418.76 690.68 416.58 700.26 427.00 700.00 C 437.42 699.74 443.80 701.01 442.00 691.00 C 440.20 680.99 439.89 676.59 438.00 668.00 C 436.11 659.42 435.68 653.92 434.00 646.00 C 432.31 638.08 431.58 631.42 428.98 624.03 C 426.37 616.63 423.33 612.29 415.00 612.00 C 406.68 611.71 399.79 614.26 397.92 621.92 C 396.06 629.59 392.29 633.51 390.31 640.31 C 388.32 647.10 384.55 653.59 382.98 659.98 C 381.41 666.36 377.58 674.17 376.93 679.93 C 376.27 685.69 369.12 695.57 374.00 699.00
M 412.00 644.00 
C 413.10 650.63 414.67 657.15 415.00 664.00
C 412.00 664.00 409.00 664.00 406.00 664.00
C 406.96 657.15 409.05 649.94 412.00 644.00
M 408.00 647.00 
C 405.53 653.71 402.76 660.34 400.00 667.00
C 399.36 660.90 403.57 652.02 408.00 647.00
M 427.00 657.00 
C 428.15 659.22 426.97 660.95 428.00 663.00
C 424.06 663.42 425.17 658.40 427.00 657.00
M 435.00 695.00 
C 432.05 692.30 431.44 687.51 427.00 686.00
C 428.93 683.33 428.15 680.58 429.00 678.00
C 434.03 678.81 434.45 688.17 435.00 695.00 Z"/>
</g>
<g fill="#6C219B" fill-opacity="1.00" stroke="None">
<path d="
M 501.00 674.00 
C 500.18 680.91 487.96 684.34 486.78 676.22 C 485.60 668.11 485.31 661.25 487.00 653.00 C 488.69 644.75 487.74 642.49 493.75 634.75 C 499.76 627.02 504.68 636.35 502.01 642.99 C 499.34 649.64 519.89 648.82 522.25 646.25 C 524.60 643.67 526.02 628.74 522.77 624.23 C 519.52 619.72 517.27 613.25 509.00 613.00 C 500.74 612.75 497.74 610.56 487.70 615.70 C 477.66 620.83 469.39 634.72 467.33 645.33 C 465.27 655.94 465.89 659.09 465.00 668.00 C 464.11 676.91 466.75 682.25 469.75 689.25 C 472.74 696.26 478.69 697.19 484.93 699.07 C 491.17 700.95 500.30 700.03 505.92 696.92 C 511.55 693.82 516.06 691.30 519.07 685.07 C 522.08 678.85 523.97 671.37 524.00 664.00 C 524.02 656.63 518.53 651.82 511.00 652.00 C 503.47 652.18 495.17 652.80 494.93 660.93 C 494.69 669.05 489.35 677.08 501.00 674.00
M 517.00 659.00 
C 516.37 662.84 518.28 667.99 516.00 671.00
C 514.13 667.89 516.01 662.14 517.00 659.00 Z"/>
</g>
<g fill="#6C209B" fill-opacity="1.00" stroke="None">
<path d="
M 594.00 663.00 
C 606.61 654.14 614.37 633.67 603.30 619.70 C 592.23 605.72 567.35 614.65 552.00 615.00
C 548.55 625.17 550.48 635.15 549.00 646.00 C 547.52 656.85 548.52 666.62 546.98 677.98 C 545.43 689.33 542.91 700.75 558.00 699.00 C 573.09 697.25 563.06 684.46 566.00 673.00
C 580.78 669.16 581.85 691.16 589.00 700.00
C 593.97 697.21 608.69 692.76 605.77 685.23 C 602.85 677.70 596.78 670.74 594.00 663.00
M 568.00 652.00 
C 567.52 645.80 569.75 640.28 569.00 634.00
C 575.87 629.99 589.16 629.18 586.22 639.22 C 583.28 649.26 576.41 649.51 568.00 652.00
M 605.00 648.00 
C 602.35 644.60 605.61 638.74 603.00 635.00
C 607.21 636.53 603.98 644.08 605.00 648.00
M 588.00 660.00 
C 584.14 658.40 583.16 652.96 581.00 649.00
C 587.79 651.16 586.78 655.34 588.00 660.00 Z"/>
</g>
<g fill="#B490C8" fill-opacity="1.00" stroke="None">
<path d="
M 724.00 613.00 
C 723.74 612.89 723.35 612.06 723.00 612.00
C 721.93 613.91 717.64 612.25 719.00 616.00
C 720.60 615.72 723.62 615.01 724.00 613.00 Z"/>
</g>
<g fill="#6D229C" fill-opacity="1.00" stroke="None">
<path d="
M 919.00 699.00 
C 921.79 700.30 936.14 700.19 939.00 699.00
C 943.80 696.38 940.47 686.75 946.33 685.33 C 952.19 683.91 957.32 683.63 963.00 682.00
C 963.76 690.68 961.58 700.26 972.00 700.00 C 982.42 699.74 988.80 701.01 987.00 691.00 C 985.20 680.99 984.88 676.59 983.00 668.00 C 981.11 659.42 980.68 653.92 979.00 646.00 C 977.31 638.08 976.58 631.42 973.98 624.03 C 971.37 616.63 968.32 612.29 960.00 612.00 C 951.68 611.71 944.79 614.26 942.92 621.92 C 941.06 629.59 937.29 633.51 935.31 640.31 C 933.32 647.10 929.55 653.59 927.98 659.98 C 926.41 666.36 922.58 674.17 921.93 679.93 C 921.27 685.69 914.12 695.57 919.00 699.00
M 957.00 644.00 
C 958.10 650.62 959.68 657.15 960.00 664.00
C 957.00 664.00 954.00 664.00 951.00 664.00
C 951.96 657.15 954.05 649.94 957.00 644.00
M 953.00 647.00 
C 950.53 653.71 947.76 660.35 945.00 667.00
C 944.36 660.90 948.57 652.02 953.00 647.00
M 972.00 657.00 
C 973.15 659.22 971.97 660.95 973.00 663.00
C 969.06 663.42 970.17 658.40 972.00 657.00
M 980.00 695.00 
C 977.05 692.30 976.44 687.51 972.00 686.00
C 973.93 683.33 973.15 680.58 974.00 678.00
C 979.03 678.81 979.45 688.17 980.00 695.00 Z"/>
</g>
<g fill="#B490C8" fill-opacity="1.00" stroke="None">
<path d="
M 105.00 616.00 
C 106.03 618.66 114.77 616.17 116.00 616.00
C 113.58 615.99 111.79 615.47 110.00 615.00
C 109.94 614.98 103.68 613.98 107.00 613.00
C 105.40 613.66 105.33 614.48 105.00 616.00 Z"/>
</g>
<g fill="#7632A2" fill-opacity="1.00" stroke="None">
<path d="
M 110.00 615.00 
C 113.46 615.41 117.52 615.20 121.00 615.00
C 121.84 614.95 124.97 614.00 125.00 614.00
C 121.59 612.44 110.63 611.51 107.00 613.00
C 103.68 613.98 109.94 614.98 110.00 615.00 Z"/>
</g>
<g fill="#BB9ACC" fill-opacity="1.00" stroke="None">
<path d="
M 121.00 615.00 
C 120.74 615.10 120.35 615.89 120.00 616.00
C 121.21 616.17 126.54 616.37 128.00 617.00
C 127.11 615.82 126.49 614.68 125.00 614.00
C 124.97 614.00 121.84 614.95 121.00 615.00 Z"/>
</g>
<g fill="#BE9FCE" fill-opacity="1.00" stroke="None">
<path d="
M 156.00 615.00 
C 155.34 615.81 154.52 617.03 154.00 618.00
C 158.47 615.38 164.52 618.62 169.00 616.00
C 166.16 615.45 159.00 613.12 156.00 615.00 Z"/>
</g>
<g fill="#E7E0E8" fill-opacity="1.00" stroke="None">
<path d="
M 214.00 614.00 
C 210.13 613.42 206.35 615.05 203.00 614.00
C 203.58 618.18 201.79 623.58 204.00 627.00
C 205.22 620.88 208.21 614.78 214.00 614.00 Z"/>
</g>
<g fill="#E7E0E8" fill-opacity="1.00" stroke="None">
<path d="
M 344.00 614.00 
C 340.13 613.42 336.35 615.05 333.00 614.00
C 333.58 618.18 331.79 623.58 334.00 627.00
C 335.22 620.88 338.21 614.78 344.00 614.00 Z"/>
</g>
<g fill="#E3D9E5" fill-opacity="1.00" stroke="None">
<path d="
M 647.00 614.00 
C 643.50 613.03 639.90 615.67 637.00 614.00
C 637.92 618.02 633.16 625.22 638.00 627.00
C 637.98 621.71 642.30 615.08 647.00 614.00 Z"/>
</g>
<g fill="#AA81C2" fill-opacity="1.00" stroke="None">
<path d="
M 804.00 615.00 
C 795.99 611.23 799.16 622.36 804.00 615.00 Z"/>
</g>
<g fill="#F0EDED" fill-opacity="1.00" stroke="None">
<path d="
M 116.00 616.00 
C 117.14 616.01 118.92 616.33 120.00 616.00
C 120.35 615.89 120.74 615.10 121.00 615.00
C 117.52 615.20 113.46 615.41 110.00 615.00
C 111.79 615.47 113.58 615.99 116.00 616.00 Z"/>
</g>
<g fill="#594966" fill-opacity="1.00" stroke="None">
<path d="
M 48.00 618.00 
C 48.13 659.32 45.09 701.52 49.00 742.00
C 51.81 714.07 51.00 684.02 51.00 655.00
C 50.70 651.92 50.00 647.75 50.00 644.00
C 50.00 635.00 50.00 626.00 50.00 617.00
C 49.88 617.26 48.19 617.59 48.00 618.00 Z"/>
</g>
<g fill="#F2F0EE" fill-opacity="1.00" stroke="None">
<path d="
M 800.00 651.00 
C 800.00 647.01 800.15 642.99 800.00 639.00
C 799.53 626.76 792.69 625.36 787.78 634.78 C 782.86 644.20 785.98 653.01 783.00 662.00 C 780.02 670.99 787.75 684.54 794.25 677.25 C 800.75 669.95 800.00 659.82 800.00 651.00 Z"/>
</g>
<g fill="#D8C8DF" fill-opacity="1.00" stroke="None">
<path d="
M 206.00 628.00 
C 199.75 628.48 203.90 635.68 202.98 639.98 C 202.05 644.27 200.87 651.04 203.00 655.00
C 204.34 646.07 203.56 635.79 206.00 628.00 Z"/>
</g>
<g fill="#D8C8DF" fill-opacity="1.00" stroke="None">
<path d="
M 336.00 628.00 
C 329.75 628.48 333.90 635.68 332.98 639.98 C 332.05 644.27 330.87 651.04 333.00 655.00
C 334.34 646.07 333.56 635.79 336.00 628.00 Z"/>
</g>
<g fill="#E3DAE5" fill-opacity="1.00" stroke="None">
<path d="
M 636.00 634.00 
C 636.11 634.74 637.91 637.32 638.00 638.00
C 639.32 634.56 636.77 631.30 639.00 628.00
C 634.89 627.02 636.15 631.54 636.00 634.00 Z"/>
</g>
<g fill="#C3A6D1" fill-opacity="1.00" stroke="None">
<path d="
M 728.00 629.00 
C 725.91 630.66 726.14 634.32 728.00 636.00
C 729.44 634.20 728.44 631.44 728.00 629.00 Z"/>
</g>
<g fill="#F1EEED" fill-opacity="1.00" stroke="None">
<path d="
M 568.00 652.00 
C 576.41 649.51 583.28 649.26 586.22 639.22 C 589.16 629.18 575.87 629.99 569.00 634.00
C 569.75 640.28 567.52 645.80 568.00 652.00 Z"/>
</g>
<g fill="#C4A8D2" fill-opacity="1.00" stroke="None">
<path d="
M 638.00 638.00 
C 637.91 637.32 636.11 634.74 636.00 634.00
C 637.08 645.94 632.98 657.66 635.00 669.00
C 636.51 659.23 636.94 648.06 638.00 638.00 Z"/>
</g>
<g fill="#9E6EBB" fill-opacity="1.00" stroke="None">
<path d="
M 605.00 648.00 
C 603.98 644.08 607.21 636.53 603.00 635.00
C 605.61 638.74 602.35 644.60 605.00 648.00 Z"/>
</g>
<g fill="#945EB4" fill-opacity="1.00" stroke="None">
<path d="
M 265.00 638.00 
C 264.26 635.12 260.39 637.01 259.00 638.00
C 260.99 638.96 263.53 639.01 265.00 638.00 Z"/>
</g>
<g fill="#B896CA" fill-opacity="1.00" stroke="None">
<path d="
M 800.00 651.00 
C 803.08 651.72 800.04 648.24 803.00 649.00
C 798.81 646.25 801.62 640.95 804.00 639.00
C 802.40 638.71 801.30 640.54 800.00 639.00
C 800.15 642.99 800.00 647.01 800.00 651.00 Z"/>
</g>
<g fill="#9C93A1" fill-opacity="1.00" stroke="None">
<path d="
M 51.00 655.00 
C 51.00 651.25 50.30 647.08 50.00 644.00
C 50.00 647.75 50.70 651.92 51.00 655.00 Z"/>
</g>
<g fill="#EAE4E9" fill-opacity="1.00" stroke="None">
<path d="
M 412.00 644.00 
C 409.05 649.94 406.96 657.15 406.00 664.00
C 409.00 664.00 412.00 664.00 415.00 664.00
C 414.67 657.15 413.10 650.63 412.00 644.00 Z"/>
</g>
<g fill="#EAE4E9" fill-opacity="1.00" stroke="None">
<path d="
M 957.00 644.00 
C 954.05 649.94 951.96 657.15 951.00 664.00
C 954.00 664.00 957.00 664.00 960.00 664.00
C 959.68 657.15 958.10 650.62 957.00 644.00 Z"/>
</g>
<g fill="#D4C2DC" fill-opacity="1.00" stroke="None">
<path d="
M 408.00 647.00 
C 403.57 652.02 399.36 660.90 400.00 667.00
C 402.76 660.34 405.53 653.71 408.00 647.00 Z"/>
</g>
<g fill="#D4C2DC" fill-opacity="1.00" stroke="None">
<path d="
M 953.00 647.00 
C 948.57 652.02 944.36 660.90 945.00 667.00
C 947.76 660.35 950.53 653.71 953.00 647.00 Z"/>
</g>
<g fill="#9663B6" fill-opacity="1.00" stroke="None">
<path d="
M 588.00 660.00 
C 586.78 655.34 587.79 651.16 581.00 649.00
C 583.16 652.96 584.14 658.40 588.00 660.00 Z"/>
</g>
<g fill="#B794C9" fill-opacity="1.00" stroke="None">
<path d="
M 304.00 666.00 
C 305.40 662.30 305.00 657.44 305.00 653.00
C 304.66 656.53 303.17 661.69 304.00 666.00 Z"/>
</g>
<g fill="#D1BDDA" fill-opacity="1.00" stroke="None">
<path d="
M 815.00 663.00 
C 815.56 661.53 817.77 658.22 816.00 656.00
C 814.16 656.18 811.09 660.74 815.00 663.00 Z"/>
</g>
<g fill="#A477BE" fill-opacity="1.00" stroke="None">
<path d="
M 816.00 656.00 
C 817.77 658.22 815.56 661.53 815.00 663.00
C 816.70 661.48 818.32 663.87 820.00 662.00
C 820.13 662.98 819.84 664.03 820.00 665.00
C 820.23 663.95 820.84 662.60 821.00 661.00
C 818.08 661.93 819.68 656.42 817.00 659.00
C 817.01 656.08 819.08 655.70 816.00 656.00 Z"/>
</g>
<g fill="#D2BEDA" fill-opacity="1.00" stroke="None">
<path d="
M 203.00 656.00 
C 200.06 658.57 200.35 664.95 202.00 668.00
C 201.40 663.77 202.81 660.01 203.00 656.00 Z"/>
</g>
<g fill="#D2BEDA" fill-opacity="1.00" stroke="None">
<path d="
M 333.00 656.00 
C 330.06 658.57 330.35 664.95 332.00 668.00
C 331.40 663.77 332.81 660.01 333.00 656.00 Z"/>
</g>
<g fill="#C8AFD4" fill-opacity="1.00" stroke="None">
<path d="
M 427.00 657.00 
C 425.17 658.40 424.06 663.42 428.00 663.00
C 426.97 660.95 428.15 659.22 427.00 657.00 Z"/>
</g>
<g fill="#C8AFD4" fill-opacity="1.00" stroke="None">
<path d="
M 972.00 657.00 
C 970.17 658.40 969.06 663.42 973.00 663.00
C 971.97 660.95 973.15 659.22 972.00 657.00 Z"/>
</g>
<g fill="#BE9FCE" fill-opacity="1.00" stroke="None">
<path d="
M 517.00 659.00 
C 516.01 662.14 514.13 667.89 516.00 671.00
C 518.28 667.99 516.37 662.84 517.00 659.00 Z"/>
</g>
<g fill="#925AB3" fill-opacity="1.00" stroke="None">
<path d="
M 270.00 664.00 
C 270.21 664.30 270.93 664.76 271.00 665.00
C 273.37 666.15 277.05 665.22 277.00 662.00
C 274.67 663.31 272.61 663.44 270.00 664.00 Z"/>
</g>
<g fill="#AE86C4" fill-opacity="1.00" stroke="None">
<path d="
M 218.00 665.00 
C 213.34 664.70 213.36 671.31 218.00 671.00
C 215.35 668.78 217.42 667.52 218.00 665.00 Z"/>
</g>
<g fill="#AE86C4" fill-opacity="1.00" stroke="None">
<path d="
M 348.00 665.00 
C 343.34 664.70 343.36 671.31 348.00 671.00
C 345.35 668.78 347.42 667.52 348.00 665.00 Z"/>
</g>
<g fill="#A97EC1" fill-opacity="1.00" stroke="None">
<path d="
M 651.00 665.00 
C 646.14 665.21 646.42 672.60 652.00 671.00
C 650.22 669.08 649.93 667.33 651.00 665.00 Z"/>
</g>
<g fill="#9F70BB" fill-opacity="1.00" stroke="None">
<path d="
M 808.00 669.00 
C 808.15 669.21 809.96 670.00 810.00 670.00
C 811.26 669.88 811.94 669.66 813.00 669.00
C 813.31 668.80 813.80 668.31 814.00 668.00
C 812.29 664.52 810.23 671.14 808.00 665.00
C 806.66 666.49 808.09 667.38 808.00 669.00 Z"/>
</g>
<g fill="#B18BC6" fill-opacity="1.00" stroke="None">
<path d="
M 806.00 666.00 
C 797.51 664.07 801.64 671.38 806.00 666.00 Z"/>
</g>
<g fill="#C1A4D0" fill-opacity="1.00" stroke="None">
<path d="
M 814.00 668.00 
C 813.80 668.31 813.31 668.80 813.00 669.00
C 813.82 670.25 815.21 670.76 816.00 672.00
C 817.96 669.74 816.58 664.09 814.00 668.00 Z"/>
</g>
<g fill="#C9B0D5" fill-opacity="1.00" stroke="None">
<path d="
M 810.00 670.00 
C 809.96 670.00 808.15 669.21 808.00 669.00
C 808.58 671.81 806.66 671.92 806.00 676.00
C 808.92 675.41 811.35 673.44 810.00 670.00 Z"/>
</g>
<g fill="#D2BFDB" fill-opacity="1.00" stroke="None">
<path d="
M 107.00 671.00 
C 101.55 677.15 104.87 690.06 106.00 698.00
C 106.18 688.97 105.37 679.66 107.00 671.00 Z"/>
</g>
<g fill="#B694C9" fill-opacity="1.00" stroke="None">
<path d="
M 895.00 674.00 
C 889.13 669.85 869.14 677.49 866.00 671.00
C 864.53 671.27 865.11 673.00 865.00 674.00
C 873.58 676.94 886.90 670.08 895.00 674.00 Z"/>
</g>
<g fill="#AD86C4" fill-opacity="1.00" stroke="None">
<path d="
M 216.00 672.00 
C 212.96 672.29 210.26 673.44 212.00 677.00
C 212.95 675.11 215.85 674.18 216.00 672.00 Z"/>
</g>
<g fill="#AD86C4" fill-opacity="1.00" stroke="None">
<path d="
M 346.00 672.00 
C 342.96 672.29 340.26 673.44 342.00 677.00
C 342.95 675.11 345.85 674.18 346.00 672.00 Z"/>
</g>
<g fill="#A77CC1" fill-opacity="1.00" stroke="None">
<path d="
M 650.00 672.00 
C 645.55 672.06 645.10 672.71 645.00 677.00
C 646.60 674.98 649.48 674.27 650.00 672.00 Z"/>
</g>
<g fill="#584764" fill-opacity="1.00" stroke="None">
<path d="
M 1012.00 674.00 
C 1010.33 687.52 1010.34 704.41 1012.00 718.00
C 1012.96 703.53 1013.82 688.41 1012.00 674.00 Z"/>
</g>
<g fill="#E8E1E8" fill-opacity="1.00" stroke="None">
<path d="
M 435.00 695.00 
C 434.45 688.17 434.03 678.81 429.00 678.00
C 428.15 680.58 428.93 683.33 427.00 686.00
C 431.44 687.51 432.05 692.30 435.00 695.00 Z"/>
</g>
<g fill="#E8E1E8" fill-opacity="1.00" stroke="None">
<path d="
M 980.00 695.00 
C 979.45 688.17 979.03 678.81 974.00 678.00
C 973.15 680.58 973.93 683.33 972.00 686.00
C 976.44 687.51 977.05 692.30 980.00 695.00 Z"/>
</g>
<g fill="#D0BCDA" fill-opacity="1.00" stroke="None">
<path d="
M 806.00 685.00 
C 805.30 683.02 802.83 682.27 801.00 682.00
C 800.77 684.38 804.00 687.22 806.00 685.00 Z"/>
</g>
<g fill="#DED1E2" fill-opacity="1.00" stroke="None">
<path d="
M 781.00 683.00 
C 773.53 684.21 784.64 689.57 781.00 683.00 Z"/>
</g>
<g fill="#BC9CCD" fill-opacity="1.00" stroke="None">
<path d="
M 264.00 697.00 
C 265.76 693.59 265.00 688.22 265.00 684.00
C 264.73 686.76 265.04 693.92 264.00 697.00 Z"/>
</g>
<g fill="#5B4A67" fill-opacity="1.00" stroke="None">
<path d="
M 72.00 758.00 
C 73.67 735.14 73.66 708.93 72.00 686.00
C 70.39 709.43 70.29 734.57 72.00 758.00 Z"/>
</g>
<g fill="#5B4B68" fill-opacity="1.00" stroke="None">
<path d="
M 943.00 874.00 
C 943.01 874.00 943.00 875.00 943.00 875.00
C 978.68 872.43 1011.40 856.16 1026.69 820.69 C 1041.99 785.23 1033.21 731.74 1033.00 693.00
C 1032.61 720.07 1031.57 755.90 1031.00 782.00 C 1030.43 808.10 1021.78 827.94 1004.75 845.75 C 987.72 863.57 966.96 873.52 943.00 874.00 Z"/>
</g>
<g fill="#B896CA" fill-opacity="1.00" stroke="None">
<path d="
M 394.00 699.00 
C 391.14 700.19 376.79 700.30 374.00 699.00
C 377.21 701.25 390.66 701.07 394.00 699.00 Z"/>
</g>
<g fill="#B896CA" fill-opacity="1.00" stroke="None">
<path d="
M 939.00 699.00 
C 936.14 700.19 921.79 700.30 919.00 699.00
C 922.21 701.25 935.66 701.07 939.00 699.00 Z"/>
</g>
<g fill="#5A4A67" fill-opacity="1.00" stroke="None">
<path d="
M 1012.00 736.00 
C 1009.23 758.10 1014.28 788.99 1005.31 809.30 C 996.33 829.62 979.37 838.12 960.00 843.00
C 980.79 840.31 998.45 830.09 1007.69 809.69 C 1016.93 789.30 1011.81 758.74 1012.00 736.00 Z"/>
</g>
<g fill="#58B35B" fill-opacity="1.00" stroke="None">
<path d="
M 411.00 770.00 
C 417.40 767.33 419.76 761.50 417.97 755.03 C 416.19 748.55 409.47 746.28 403.00 747.00 C 396.54 747.72 390.46 751.17 392.00 759.00 C 393.54 766.83 389.35 773.71 392.08 781.92 C 394.80 790.14 401.57 776.64 398.00 771.00
C 409.56 767.36 405.78 780.84 413.78 784.22 C 421.78 787.60 415.23 773.14 411.00 770.00
M 398.00 766.00 
C 394.36 756.98 402.33 746.89 410.74 754.26 C 419.15 761.63 404.73 769.12 398.00 766.00 Z"/>
</g>
<g fill="#57B35A" fill-opacity="1.00" stroke="None">
<path d="
M 594.00 769.00 
C 602.92 768.80 602.85 754.05 597.75 750.25 C 592.65 746.45 581.19 742.95 576.77 750.77 C 572.35 758.59 576.18 766.21 575.00 777.00 C 573.82 787.79 585.53 783.80 581.00 771.00
C 592.22 767.59 590.75 785.68 601.00 785.00
C 602.75 778.07 594.33 775.08 594.00 769.00
M 581.00 766.00 
C 576.97 757.01 585.76 746.48 593.74 754.26 C 601.72 762.03 587.65 768.65 581.00 766.00 Z"/>
</g>
<g fill="#59B35B" fill-opacity="1.00" stroke="None">
<path d="
M 243.00 768.00 
C 238.13 763.67 240.85 751.75 234.22 748.78 C 227.59 745.82 228.07 762.73 226.00 767.00 C 223.93 771.26 223.93 790.50 229.07 782.07 C 234.21 773.65 229.58 766.51 233.00 758.00
C 234.92 763.46 237.16 765.77 239.08 771.92 C 240.99 778.08 245.14 778.56 247.23 772.23 C 249.31 765.90 250.95 764.57 253.00 759.00
C 257.69 766.06 251.42 776.11 257.08 782.91 C 262.75 789.72 261.46 770.19 259.93 766.07 C 258.40 761.96 257.60 744.93 251.25 749.25 C 244.91 753.58 248.54 763.47 243.00 768.00 Z"/>
</g>
<g fill="#50B054" fill-opacity="1.00" stroke="None">
<path d="
M 294.00 753.00 
C 293.01 760.23 291.79 775.11 294.00 782.00
C 299.18 792.33 298.84 769.12 299.00 765.00 C 299.16 760.88 297.77 738.69 294.00 753.00 Z"/>
</g>
<g fill="#58B35B" fill-opacity="1.00" stroke="None">
<path d="
M 354.00 748.00 
C 346.67 746.19 339.06 749.04 335.25 755.25 C 331.44 761.47 330.59 768.73 334.08 775.92 C 337.56 783.12 342.76 784.30 350.99 784.99 C 359.22 785.68 363.16 773.57 354.22 778.22 C 345.29 782.87 341.78 776.38 338.78 771.22 C 335.78 766.06 339.71 752.64 346.00 754.00 C 352.29 755.36 366.07 750.99 354.00 748.00 Z"/>
</g>
<g fill="#58B35B" fill-opacity="1.00" stroke="None">
<path d="
M 470.00 748.00 
C 448.28 742.95 439.82 778.77 461.00 785.00 C 482.18 791.23 490.85 752.85 470.00 748.00
M 468.00 753.00 
C 481.74 755.69 477.13 783.52 463.00 780.00 C 448.86 776.48 453.63 750.18 468.00 753.00 Z"/>
</g>
<g fill="#56B259" fill-opacity="1.00" stroke="None">
<path d="
M 537.00 769.00 
C 540.55 777.66 528.98 783.07 522.75 777.25 C 516.52 771.42 519.61 765.01 521.75 757.75 C 523.90 750.49 540.52 758.23 540.97 753.03 C 541.43 747.82 526.77 746.46 522.08 750.08 C 517.39 753.69 511.96 759.44 513.00 767.00 C 514.04 774.56 515.54 779.58 522.32 783.68 C 529.10 787.78 537.05 778.99 538.00 787.00
C 542.91 784.98 545.02 770.70 541.22 764.78 C 537.42 758.86 519.54 771.11 537.00 769.00 Z"/>
</g>
<g fill="#53B157" fill-opacity="1.00" stroke="None">
<path d="
M 639.00 763.00 
C 633.39 747.62 650.21 756.79 655.91 752.92 C 661.62 749.04 646.08 745.69 639.03 748.03 C 631.97 750.36 633.25 759.95 633.00 768.00 C 632.75 776.05 633.20 784.00 642.00 785.00 C 650.80 786.00 663.19 782.31 653.00 780.00 C 642.81 777.69 636.34 782.05 639.00 768.00
C 641.88 767.38 652.44 770.01 651.92 765.08 C 651.39 760.16 641.73 764.47 639.00 763.00 Z"/>
</g>
<g fill="#53B157" fill-opacity="1.00" stroke="None">
<path d="
M 696.00 763.00 
C 690.39 747.62 707.21 756.79 712.91 752.92 C 718.62 749.04 703.08 745.69 696.03 748.03 C 688.97 750.36 690.25 759.95 690.00 768.00 C 689.75 776.05 690.20 784.00 699.00 785.00 C 707.80 786.00 720.19 782.31 710.00 780.00 C 699.81 777.69 693.34 782.05 696.00 768.00
C 698.88 767.38 709.44 770.01 708.92 765.08 C 708.39 760.16 698.73 764.47 696.00 763.00 Z"/>
</g>
<g fill="#57B359" fill-opacity="1.00" stroke="None">
<path d="
M 769.00 773.00 
C 766.29 770.14 762.47 761.78 759.77 759.23 C 757.07 756.68 752.88 745.70 748.26 748.26 C 743.63 750.82 749.26 765.55 747.00 770.00 C 744.74 774.45 748.83 790.11 752.00 782.00 C 755.17 773.89 748.82 767.12 753.00 760.00
C 755.69 763.37 759.62 770.86 762.23 773.77 C 764.84 776.68 768.88 787.58 773.22 784.22 C 777.56 780.86 773.31 767.44 775.00 763.00 C 776.69 758.56 772.73 743.50 769.33 750.33 C 765.93 757.16 771.19 765.90 769.00 773.00 Z"/>
</g>
<g fill="#5BB45D" fill-opacity="1.00" stroke="None">
<path d="
M 832.00 755.00 
C 831.82 746.76 820.70 746.51 814.23 749.23 C 807.76 751.95 806.22 760.57 811.77 765.23 C 817.32 769.89 828.27 765.72 826.97 775.97 C 825.67 786.23 811.90 773.52 808.26 777.26 C 804.62 780.99 817.82 788.13 823.92 784.92 C 830.03 781.72 835.66 777.16 831.92 769.08 C 828.17 761.00 819.09 767.25 814.93 760.07 C 810.77 752.89 827.63 752.79 832.00 755.00 Z"/>
</g>
<g fill="#F2F3ED" fill-opacity="1.00" stroke="None">
<path d="
M 398.00 766.00 
C 404.73 769.12 419.15 761.63 410.74 754.26 C 402.33 746.89 394.36 756.98 398.00 766.00 Z"/>
</g>
<g fill="#F1F3ED" fill-opacity="1.00" stroke="None">
<path d="
M 581.00 766.00 
C 587.65 768.65 601.72 762.03 593.74 754.26 C 585.76 746.48 576.97 757.01 581.00 766.00 Z"/>
</g>
<g fill="#A9D5A9" fill-opacity="1.00" stroke="None">
<path d="
M 294.00 782.00 
C 291.79 775.11 293.01 760.23 294.00 753.00
C 292.29 759.50 290.83 775.69 294.00 782.00 Z"/>
</g>
<g fill="#F3F4EE" fill-opacity="1.00" stroke="None">
<path d="
M 468.00 753.00 
C 453.63 750.18 448.86 776.48 463.00 780.00 C 477.13 783.52 481.74 755.69 468.00 753.00 Z"/>
</g>
<g fill="#C7C2C7" fill-opacity="1.00" stroke="None">
<path d="
M 49.00 786.00 
C 49.14 784.87 49.83 784.65 50.00 784.00
C 49.36 776.49 51.30 767.76 49.00 761.00
C 48.84 769.60 48.24 778.17 49.00 786.00 Z"/>
</g>
<g fill="#5A4A67" fill-opacity="1.00" stroke="None">
<path d="
M 49.00 786.00 
C 46.26 808.25 59.56 831.24 74.75 847.25 C 89.94 863.26 109.13 875.03 132.93 876.07 C 156.73 877.12 192.78 877.37 218.00 876.00
C 219.05 875.84 222.01 874.15 223.00 874.00
C 197.10 874.00 160.92 873.73 136.07 872.93 C 111.22 872.12 92.97 860.50 76.25 844.75 C 59.53 829.01 50.00 806.28 50.00 784.00
C 49.83 784.65 49.14 784.87 49.00 786.00 Z"/>
</g>
<g fill="#5B4B68" fill-opacity="1.00" stroke="None">
<path d="
M 125.00 844.00 
C 132.66 844.15 140.34 844.00 148.00 844.00
C 160.51 843.34 174.24 845.32 186.00 843.00
C 162.63 841.84 131.71 844.97 110.22 838.78 C 88.73 832.59 79.68 814.40 73.00 796.00
C 75.86 821.00 99.50 843.49 125.00 844.00 Z"/>
</g>
<g fill="#5A4A67" fill-opacity="1.00" stroke="None">
<path d="
M 213.00 844.00 
C 219.00 844.00 225.00 844.00 231.00 844.00
C 234.84 843.43 239.91 845.19 243.00 843.00
C 226.36 841.98 209.04 841.61 193.00 844.00
C 199.67 844.00 206.33 844.00 213.00 844.00 Z"/>
</g>
<g fill="#594865" fill-opacity="1.00" stroke="None">
<path d="
M 930.00 843.00 
C 903.42 841.54 874.91 841.01 849.00 844.00
C 875.85 843.33 903.90 845.33 930.00 843.00 Z"/>
</g>
<g fill="#9B91A0" fill-opacity="1.00" stroke="None">
<path d="
M 148.00 844.00 
C 140.34 844.00 132.66 844.15 125.00 844.00
C 132.19 844.87 140.76 844.70 148.00 844.00 Z"/>
</g>
<g fill="#998F9F" fill-opacity="1.00" stroke="None">
<path d="
M 231.00 844.00 
C 225.00 844.00 219.00 844.00 213.00 844.00
C 218.60 844.54 225.33 844.55 231.00 844.00 Z"/>
</g>
<g fill="#5B4A67" fill-opacity="1.00" stroke="None">
<path d="
M 322.00 875.00 
C 299.56 871.40 273.61 872.86 251.00 875.00
C 274.24 876.99 298.85 878.34 322.00 875.00 Z"/>
</g>
<g fill="#5E4E6A" fill-opacity="1.00" stroke="None">
<path d="
M 818.00 876.00 
C 822.08 876.00 826.66 876.68 830.00 877.00
C 854.77 876.70 880.42 877.69 904.00 874.00
C 857.30 872.59 809.05 872.22 763.00 875.00
C 781.30 875.85 799.45 876.00 818.00 876.00 Z"/>
</g>
<g fill="#B0A8B2" fill-opacity="1.00" stroke="None">
<path d="
M 218.00 876.00 
C 223.50 874.88 230.03 875.79 235.00 874.00
C 231.00 874.00 227.00 874.00 223.00 874.00
C 222.01 874.15 219.05 875.84 218.00 876.00 Z"/>
</g>
<g fill="#BAB4BC" fill-opacity="1.00" stroke="None">
<path d="
M 932.00 875.00 
C 931.96 875.00 932.00 874.00 932.00 874.00
C 926.82 874.61 920.42 872.75 916.00 875.00
C 921.33 875.00 926.67 875.00 932.00 875.00 Z"/>
</g>
<g fill="#82758A" fill-opacity="1.00" stroke="None">
<path d="
M 932.00 875.00 
C 935.67 875.00 939.33 875.00 943.00 875.00
C 943.00 875.00 943.01 874.00 943.00 874.00
C 939.34 874.07 935.66 874.00 932.00 874.00
C 932.00 874.00 931.96 875.00 932.00 875.00 Z"/>
</g>
<g fill="#9D94A2" fill-opacity="1.00" stroke="None">
<path d="
M 830.00 877.00 
C 826.66 876.68 822.08 876.00 818.00 876.00
C 821.34 876.32 825.92 877.00 830.00 877.00 Z"/>
</g>
</svg>